<?xml version="1.0" encoding="UTF-8"?>
<!DOCTYPE svg PUBLIC "-//W3C//DTD SVG 1.1//EN" "http://www.w3.org/Graphics/SVG/1.1/DTD/svg11.dtd">
<!-- Creator: CorelDRAW -->
<svg xmlns="http://www.w3.org/2000/svg" xml:space="preserve" width="232.057mm" height="95.7334mm" version="1.1" style="shape-rendering:geometricPrecision; text-rendering:geometricPrecision; image-rendering:optimizeQuality; fill-rule:evenodd; clip-rule:evenodd"
viewBox="0 0 23205.7 9573.34"
 xmlns:xlink="http://www.w3.org/1999/xlink"
 xmlns:xodm="http://www.corel.com/coreldraw/odm/2003">
 <defs>
  <style type="text/css">
   <![CDATA[
    .fil36 {fill:black}
    .fil12 {fill:#003333}
    .fil18 {fill:#02222D}
    .fil30 {fill:#138FCC}
    .fil29 {fill:#32ABE3}
    .fil34 {fill:#4D4D4D}
    .fil14 {fill:#542B02}
    .fil35 {fill:#554F59}
    .fil16 {fill:#63B589}
    .fil10 {fill:#663300}
    .fil2 {fill:#6666CC}
    .fil24 {fill:#6666CC}
    .fil15 {fill:#72D5A0}
    .fil22 {fill:#754E43}
    .fil9 {fill:#95A1A6}
    .fil7 {fill:#996633}
    .fil1 {fill:#9999FF}
    .fil26 {fill:#A6609A}
    .fil28 {fill:#CCCCCC}
    .fil13 {fill:#D3E5EB}
    .fil32 {fill:#D5304B}
    .fil23 {fill:#DEAB8E}
    .fil8 {fill:#DEF1F8}
    .fil11 {fill:#E6E6E6}
    .fil25 {fill:#EDB99A}
    .fil0 {fill:#EDB99A}
    .fil33 {fill:#F5BCAB}
    .fil6 {fill:#F5BCAB}
    .fil21 {fill:#FCC4A3}
    .fil27 {fill:#FCC4A3}
    .fil31 {fill:#FD5968}
    .fil4 {fill:white}
    .fil5 {fill:white}
    .fil17 {fill:white;fill-rule:nonzero}
    .fil3 {fill:black;fill-opacity:0.101961}
    .fil20 {fill:#042434;fill-opacity:0.101961}
    .fil19 {fill:#042434;fill-opacity:0.200000}
   ]]>
  </style>
 </defs>
 <g id="Camada_x0020_1">
  <metadata id="CorelCorpID_0Corel-Layer"/>
  <path class="fil0" d="M16169.69 3951.09c122.83,154.69 1071.68,674.02 1092.6,616.39 69.08,65.9 109.91,158.05 182.4,224.92 40.61,37.47 70.33,47.97 92.71,28.98 21.01,-17.8 -72.65,-91.69 -93.47,-112.5 39.55,25.49 79.18,50.9 118.65,76.48 36.57,23.7 50.72,38.36 73.11,21.96 32.27,-23.67 -143.45,-129.59 -133.12,-123.96 9.74,5.31 19.5,10.63 29.24,15.92 41.4,22.54 82.82,45.13 124.23,67.67 27.21,14.81 57.51,44.79 83.61,19.39 10.05,-9.79 13.31,-25.78 -14.67,-47 -57.38,-43.5 -114.44,-88.22 -171.47,-132.2 26.87,11.79 53.75,23.58 80.61,35.39 30.86,13.57 128.06,73.69 142.67,41.1 6.88,-15.33 4.7,-21.4 -7.17,-32 -103.55,-92.52 -220.05,-142.34 -264.25,-179.87 -14.32,-12.16 -21.91,-17.29 -6.82,-32.13 21.04,-20.69 77.16,-68.92 98.1,-89.72 26.71,-26.53 47.51,-41 1.49,-67.38 -14.11,-8.09 -36.23,-3.04 -48.31,6.7l-1.52 1.22c-60.17,48.54 -130.31,98.39 -207.39,115.11 -119.62,25.97 -844.83,-762.91 -1085.63,-853.1 -23.88,-9.86 -145.65,323.02 -85.6,398.63z"/>
  <path class="fil0" d="M20948.91 5682.1c-197.51,-3.29 -1187.13,-439.94 -1154.14,-491.61 -94.33,-14.7 -192.3,9.01 -289.49,-7.8 -54.44,-9.41 -80.86,-26.59 -79.42,-55.91 1.33,-27.51 116.97,1.82 146.15,5.68 -44.29,-15.87 -88.57,-31.84 -132.9,-47.58 -41.07,-14.59 -61.31,-16.9 -61.93,-44.64 -0.86,-40.01 190.14,34.92 179.39,30.16 -10.15,-4.5 -20.31,-9.01 -30.44,-13.51 -43.09,-19.13 -86.22,-38.24 -129.31,-57.37 -28.31,-12.57 -70.55,-18.36 -66.27,-54.53 1.65,-13.93 12.35,-26.25 46.21,-16.97 69.44,19.04 139.66,37.08 209.27,55.57 -25.71,-14.15 -51.43,-28.29 -77.15,-42.42 -29.55,-16.22 -136.42,-56.74 -119.46,-88.17 7.97,-14.79 14.12,-16.76 29.76,-13.79 136.43,25.84 246.87,87.93 303.56,100.15 18.36,3.96 27.05,6.86 29.64,-14.14 3.61,-29.3 7.71,-103.17 11.46,-132.45 4.79,-37.34 3.61,-62.66 52.55,-42.2 15.01,6.27 24.47,26.89 24.1,42.41l-0.05 1.95c-1.88,77.28 1.27,163.27 34.93,234.6 52.21,110.72 1119.55,205.85 1337.69,342 22.36,12.94 -167.62,312.19 -264.15,310.57z"/>
  <g id="_1749138542832">
   <g>
    <path class="fil1" d="M18285.88 2728.05c675.42,259.3 1351.02,518.14 2026.26,777.85 137.96,53.06 220.42,172.52 206.8,321.73 -2.9,27.71 -8.91,50.89 -18.5,76.96l-782.9 2039.33c-60.06,156.46 -237.16,235.3 -393.62,175.24l-2039.33 -782.9c-156.46,-60.07 -235.32,-237.17 -175.25,-393.63l782.9 -2039.33c60.06,-156.46 237.18,-235.31 393.64,-175.25z"/>
    <path class="fil2" d="M17293.6 5330.87c-155.54,-59.71 -233.92,-235.79 -174.21,-391.33l778.25 -2027.22c59.71,-155.54 235.79,-233.92 391.33,-174.21l2027.22 778.25c155.54,59.71 233.93,235.79 174.21,391.33l-778.25 2027.22c-59.71,155.54 -235.79,233.93 -391.33,174.21l-2027.22 -778.25zm3040.59 -1825.29l-2051.39 -787.53c-157.38,-60.42 -335.54,18.88 -395.96,176.26l-787.53 2051.39c-60.42,157.38 18.9,335.55 176.28,395.97l2051.39 787.53c157.38,60.42 335.54,-18.91 395.95,-176.29l787.54 -2051.39c60.41,-157.38 -18.89,-335.52 -176.28,-395.94z"/>
    <path class="fil3" d="M17119.39 4939.54c-59.71,155.54 18.67,331.62 174.21,391.33l2027.22 778.25c155.54,59.72 331.62,-18.67 391.33,-174.21l778.25 -2027.22c59.72,-155.54 -18.67,-331.62 -174.21,-391.33l-2027.22 -778.25c-155.54,-59.71 -331.62,18.67 -391.33,174.21l-778.25 2027.22zm2154.95 1036.63l-1917.36 -736.08c-147.12,-56.48 -221.25,-222.99 -164.77,-370.11l736.08 -1917.36c56.48,-147.12 223,-221.27 370.12,-164.79l1917.36 736.07c147.12,56.48 221.26,223.02 164.78,370.14l-736.08 1917.36c-56.47,147.12 -223.01,221.24 -370.13,164.77z"/>
    <path class="fil4" d="M17192.21 4869.98c-21.68,56.47 -24.12,115.78 -10.56,170.64l773.95 -2016.03c57.68,-150.23 227.77,-225.94 378.02,-168.26l1958.35 751.81c24.21,9.3 46.48,21.51 66.59,36.09 -31.78,-53.2 -80.8,-96.53 -142.79,-120.33l-1917.36 -736.07c-147.12,-56.48 -313.64,17.67 -370.12,164.79l-736.08 1917.36z"/>
   </g>
   <g>
    <path class="fil5" d="M18769.94 4345.1l68.27 -177.83c-142.7,-19.76 -219.55,-163.18 -171.87,-287.37 41.02,-106.85 165.44,-162.23 272.28,-121.21 23.01,8.83 26.15,14.38 47.74,22.66l108.93 -283.75c9.89,-25.75 -77.91,-103.72 -126.64,-122.43 -92.89,-35.66 -191.26,-41.32 -275.16,9.05 -37.41,22.46 -61.47,38.27 -92.02,75.15 -39.06,47.15 -45.1,85.05 -63.33,132.55 -88.25,-33.88 -176.76,-20.32 -257.76,5.84 -101.28,32.72 -198.19,130.19 -236.45,229.87 -15.58,40.58 -23.6,84.91 -26.6,121.64 -4.25,51.99 8.48,97.99 7.24,109.68 61.81,23.73 123.6,47.46 185.4,71.18 41.73,16.02 92,25.47 104.36,69.6 19.37,69.1 -45.53,82.48 -64.66,132.3 -35.69,92.96 97.52,171.61 160.63,86 29.88,-40.51 17.28,-60.78 15.52,-89.12 -4.37,-70.21 62.73,-91.83 98.18,-78.23l245.94 94.42z"/>
    <path class="fil5" d="M18972.03 4157.88l-88.6 230.79 177.83 68.27 18.01 -58.2c37.27,-97.09 161.16,-155.19 258.02,-118 79.27,30.43 116.89,68.53 140.55,144.46 23.3,74.71 -3.93,124.51 -30.66,179.9l181.62 69.72c57.21,-49.95 106.98,-97.76 136.06,-173.5 39.37,-102.57 33.46,-213.85 -7.13,-310.53 -36.52,-87.04 -112.35,-169.47 -203.26,-204.37 17.38,-25.67 19.91,-40.57 32.83,-74.22 27.83,-72.5 8.22,-161.14 -14.78,-213 -31.6,-71.22 -89.05,-124.52 -159.59,-153.47l-13.79 -5.29c-31.93,-11.43 -66.28,-17.99 -101.95,-19.15 -40.81,-1.32 -65.68,10.47 -84.04,8.52 -16.86,43.93 -128.83,344.7 -145.38,371.01 -12.38,19.68 -20.65,26 -38.76,32.73 -76.43,28.38 -83.62,-57.09 -148.82,-67.06 -21.12,-3.21 -39.48,-0.89 -56.48,7.51 -59.71,29.46 -82.88,134.34 13.53,171.36 35.07,13.46 108.57,-26.77 137.72,51.62 6.42,17.27 5.91,37.89 -2.93,60.9z"/>
    <path class="fil5" d="M19087.25 4592.8l-245.94 -94.41 -68.27 177.84c200.94,27.83 265.56,299.12 62.45,400.97 -48.92,24.54 -109.87,27.96 -162.87,7.61 -23.01,-8.83 -26.15,-14.37 -47.74,-22.66l-114.74 298.89c12.13,8.79 14.89,18.4 24.71,29.78 30.35,35.19 67.47,63.2 108.46,82.11l37.57 14.42c39.11,12.12 80.67,16.24 122.5,10.93 80.57,-10.24 156.03,-48.67 206.97,-112.87 19.75,-24.88 60.1,-99.58 57.53,-131.5 50.7,19.47 116.72,22.51 159.12,19.19 206.71,-16.18 385.16,-210.35 365.02,-434.48 -1.38,-15.33 -7.22,-40.57 -5.34,-54.09 -36.94,-14.18 -251.57,-89.64 -271.68,-111.18 -27.94,-29.94 -24.5,-55.89 -11.86,-88.83 10.13,-26.38 40.23,-25.63 58.44,-73.06 28.89,-75.25 -57.89,-148.61 -126.13,-114.24 -16.66,8.38 -40.5,28.12 -49.36,51.21 -15.18,39.54 12.2,68.92 -8.65,107.24 -17.21,31.64 -54.66,50.77 -90.19,37.13z"/>
    <path class="fil5" d="M18639.22 4685.61l88.6 -230.79 -177.83 -68.27c-18.66,48.61 -20.86,120.74 -123.53,166.45 -21.86,9.73 -41.27,17.23 -66.53,19.69 -164.36,15.88 -270.07,-152.3 -225.79,-267.63l29.93 -66.67 -181.62 -69.72c-9.01,12.44 -93.8,63.42 -137.51,177.29 -77.22,201.14 18.34,441.15 210.39,514.88 -24.12,22.8 -42.7,104.15 -45.23,136.22 -10.42,133.02 66.53,254.07 185.08,303.83l17.8 6.83c47.28,16.45 100.41,21.86 156.78,12.79 37.89,-6.09 30.95,-13.55 48.67,-59.8l103.13 -268.63c12.53,-32.77 21.03,-58.08 42.73,-73.09 17.22,-11.9 46.28,-18.62 71.27,-9.03 31.35,12.04 71.2,99.4 151.98,59.52 60.25,-29.71 81.83,-134.74 -13.54,-171.35 -40.37,-15.5 -48.68,11.7 -97.19,-6.92 -41.04,-15.76 -53.72,-63.61 -37.59,-105.6z"/>
   </g>
  </g>
  <g id="_1749138540720">
   <path class="fil6" d="M21290.09 5034.39c26.01,40.63 -75.63,167.55 -78.96,254.03 245.93,80.7 440.67,48.22 505.74,56.52 -9.49,-40.66 -49.52,-216.25 -9.3,-251.37 -4.86,-4.72 615.67,96.34 991.68,-384.02 276.87,-353.71 193.11,-983.52 -254.34,-1333.77 -447.45,-350.25 -1139.01,-224.65 -1366.03,65.37 -261.29,333.8 -143.55,770.67 -261.79,812.97 -120.87,43.24 -54.04,80.9 -85.65,174.82 -117.64,419.32 300.06,493.14 558.65,605.45z"/>
   <path class="fil7" d="M20884.28 3550.72c136.24,110.83 419.67,221.39 674,201.29 -9.34,58.04 -214.62,518.35 81.71,756.98 12.67,-7.71 325.74,-344.55 383.71,-4.05 38.7,227.38 -120.23,330.01 -339.57,369.7 37.98,189.05 -18.6,291.78 136.32,330.81 52.23,13.16 24.77,-12.93 98.88,48.79 3.93,3.3 9.06,9.69 14.22,13.82l2.55 -67c204.36,-43.14 367.14,-105.68 527.13,-208.24 456.55,-292.67 691.34,-873.77 437.24,-1271.69 14.54,25.68 49.31,48.51 78.6,100.52 90.85,161.44 53.71,303.93 42.63,452.99 116.93,-158.63 91.17,-462.17 -59.38,-615.88l44.09 -18.89c16.24,-6.48 13.4,52.71 25.56,-9.96 1.05,-5.41 9.46,-2.47 13.33,-5.32 -45.63,-58.07 -52.43,-63.93 -138.43,-69.66 19.09,-49.64 26.5,-20.57 49.11,-102.74 -87.64,19.71 -40.62,-1.78 -102.77,48.47 -70.99,-351.91 -424.41,-558.45 -712.48,-620.54 -168.72,-36.39 -361.1,-37.11 -553.46,-30.27 -211.24,7.52 -345.08,-14.91 -539.3,-26.31 72.47,107.99 247.74,110.68 414.51,126.02 -134.91,26.65 -237.27,24.92 -358.49,-5.95 -116.08,-29.57 -166.21,-93.46 -259.95,-125.63 9.75,104.27 45.28,144.31 80.79,223.05 -103.27,-92.71 -81.7,-121.38 -128.42,-180.73 -265.48,206.21 -107.99,826.91 87.87,690.42z"/>
  </g>
  <path class="fil8" d="M21900.97 6711.1c-44.77,208.82 -993.87,146.37 -1303.82,-96.68 -68.72,-245.74 117.17,-660.33 241.48,-918.52 64.49,-123.76 127.87,-192.68 213.42,-305.02 30.07,-39.48 176.44,-191.16 178.33,-188 3.39,5.64 2.43,34.19 32.85,53.78 73.98,47.62 357.32,20.6 440.21,-29.48 303.65,277.98 232.92,1318.89 197.53,1483.92z"/>
  <path class="fil9" d="M20837.87 5243.96c18.94,121.45 -50.33,473.1 -136.23,634.9 -27.63,-213.79 80.62,-539.3 136.23,-634.9z"/>
  <path class="fil9" d="M16517.59 3677.44c-111.35,52.05 -364.5,305.76 -450.84,467.33 192.83,-96.38 402.54,-367.84 450.84,-467.33z"/>
  <path class="fil10" d="M2011.99 6147.58c-246.67,241.94 -269.64,234.97 -335.43,62.99l9.49 -127.62 -10.63 -400.08c146.7,29.23 202.35,77.01 357.22,25.71 -3.78,198 -12.26,285.7 -20.65,439z"/>
  <g id="_1749138536400">
   <path class="fil11" d="M2763.44 6478.95c11.98,-19.58 18.11,-32.01 16.92,-43.9 2.67,69.97 -10.23,120.31 -27.56,136.59 -62.15,52.71 -168.25,55.98 -250.41,59.87l-47.72 0.83c-78.61,-1.16 -870.19,4.02 -882.69,-3.49 -23.33,-14.05 -25.11,-20.44 -28.99,-41.77 -9.02,-49.42 -4.31,-133.97 17.96,-141.64 45.23,32.69 776.71,189.83 1202.49,33.51z"/>
   <path class="fil12" d="M2756.26 6397.3c15.34,15.8 22.97,26.53 24.1,37.75 1.19,11.89 -4.94,24.32 -16.92,43.9 -84.39,138.02 -1165.65,73.43 -1202.49,-33.51 0.66,-2.79 6.39,-16.07 7.21,-19.82 7.84,-36.41 24.91,-146.4 26.23,-180.45 1.26,-32.43 6.95,-87.92 30.04,-110.35l0.7 -0.68c15.06,-14.45 52.01,-44.99 68.95,-27.56 29.07,29.91 35.31,55.54 75.84,76.95 15.28,8.08 26.26,12.2 41.31,16.1 64.55,16.75 107.07,14.73 163.46,-24.49 51.86,-44.41 2.34,-242.83 121.85,-125.83 15.83,15.52 50.2,42.75 70.33,60.77 15.7,-12.48 27.25,-22.28 47,-2.71 10.82,10.73 7.19,32.34 6.12,45.99 3.9,3.14 7.67,5.76 11.44,8.54 15.84,-7.48 35.03,-11.98 50.32,5.28 5.9,6.67 2.15,22.86 -0.1,32.88l7.16 5.04c46.96,-16.61 58.4,10.35 57.9,39.18 3.75,2.2 7.52,4.13 11.39,6.87 20.55,-2.54 59.69,-5.71 51.31,30.54 4.53,2.67 9.3,4.7 14.09,7.41 10.42,-4.75 28.11,-7.72 36.29,-3.83 2.91,1.38 19.22,12.17 18.76,29.62l9.56 4.03c3.27,1.35 5.74,2.08 8.11,2.88 27.97,-17.16 46.51,-17.92 59.61,16.25 5.42,1 10.89,1.77 16.6,1.97 60.36,2.25 137.55,9.65 183.83,57.28zm-272.19 -11.61c23.16,23.85 48.42,-26.09 58.42,-46.04 8.96,-17.88 -31.55,-30.01 -39.9,-10.84 -6.32,14.5 -31.05,44 -18.52,56.88zm-74.97 -30.33c24.7,25.41 38.07,-7.36 46.48,-20.86 3.68,-5.91 7.82,-14.33 12.08,-20.23 9.15,-12.8 -25.96,-30.86 -36.78,-15.27 -7.6,10.88 -32.77,45.06 -21.78,56.36zm-71.16 -50.26c-4.14,18.03 17.48,32.66 33.16,17.42 11.52,-11.2 16.68,-28.97 28.17,-42.25 12.71,-14.82 -27.23,-31.88 -36.96,-16.88 -7.88,12.28 -23.1,36.16 -24.37,41.71zm-60.11 -22.41c20.35,20.93 41.96,-24.06 53.65,-41.66 13.67,-20.44 -18.87,-42.22 -33.03,-22.86 -6.44,8.85 -13.33,21.73 -18.97,30.7 -7.7,12.28 -13.12,22.03 -1.65,33.82zm-36.28 -46.67c14.06,-13.65 18.95,-29.25 27.04,-40.56 18.05,-25.19 -19.63,-46.27 -39.5,-11.95 -3.85,6.66 -7.51,13.7 -11.42,19.84 -23.16,36.57 11.11,45.09 23.88,32.67zm-60.88 -47.06c13.01,-12.61 19.82,-25.58 29.9,-44.17 7.63,-17.94 -16.19,-50.07 -35.91,-27.06 -5.35,14.55 -22.56,39.01 -26.71,52.32 -5.69,18.25 16.31,34.9 32.72,18.91z"/>
   <path class="fil4" d="M2542.49 6339.65c-10,19.95 -35.26,69.89 -58.42,46.04 -12.53,-12.88 12.2,-42.38 18.52,-56.88 8.35,-19.17 48.86,-7.04 39.9,10.84z"/>
   <path class="fil4" d="M2455.58 6334.5c-8.41,13.5 -21.78,46.27 -46.48,20.86 -10.99,-11.3 14.18,-45.48 21.78,-56.36 10.82,-15.59 45.93,2.47 36.78,15.27 -4.26,5.9 -8.4,14.32 -12.08,20.23z"/>
   <path class="fil4" d="M2399.27 6280.27c-11.49,13.28 -16.65,31.05 -28.17,42.25 -15.68,15.24 -37.3,0.61 -33.16,-17.42 1.27,-5.55 16.49,-29.43 24.37,-41.71 9.73,-15 49.67,2.06 36.96,16.88z"/>
   <path class="fil4" d="M2331.48 6241.03c-11.69,17.6 -33.3,62.59 -53.65,41.66 -11.47,-11.79 -6.05,-21.54 1.65,-33.82 5.64,-8.97 12.53,-21.85 18.97,-30.7 14.16,-19.36 46.7,2.42 33.03,22.86z"/>
   <path class="fil4" d="M2268.59 6195.46c-8.09,11.31 -12.98,26.91 -27.04,40.56 -12.77,12.42 -47.04,3.9 -23.88,-32.67 3.91,-6.14 7.57,-13.18 11.42,-19.84 19.87,-34.32 57.55,-13.24 39.5,11.95z"/>
   <path class="fil4" d="M2210.57 6144.79c-10.08,18.59 -16.89,31.56 -29.9,44.17 -16.41,15.99 -38.41,-0.66 -32.72,-18.91 4.15,-13.31 21.36,-37.77 26.71,-52.32 19.72,-23.01 43.54,9.12 35.91,27.06z"/>
  </g>
  <path class="fil13" d="M1545.32 5579.58c-23.04,19.53 -32.45,164.05 11.53,198.11 117.85,91.29 547.45,91.18 568.02,-23.36 1.16,-6.39 39.09,-136.5 24.6,-162.33 -276.45,58.26 -367.73,111.43 -604.15,-12.42z"/>
  <path class="fil14" d="M1953.05 3466.69c220.72,-21.67 1288.34,-600.42 1246.71,-655.24 104.23,-25.04 216.01,-7.43 323.23,-35.09 60.07,-15.49 88.07,-37.13 83.79,-69.8 -4,-30.66 -130.73,12.69 -163.03,19.66 48.12,-21.79 96.22,-43.69 144.38,-65.35 44.63,-20.06 67.07,-24.48 65.23,-55.59 -2.67,-44.84 -209.57,56.4 -197.98,50.09 10.94,-5.95 21.91,-11.93 32.83,-17.89 46.47,-25.33 93,-50.64 139.47,-75.97 30.54,-16.64 77.27,-26.98 69.19,-67.06 -3.11,-15.44 -16.21,-28.25 -53.25,-14.78 -75.97,27.64 -152.9,54.22 -229.11,81.24 27.48,-18.17 54.97,-36.34 82.46,-54.49 31.59,-20.85 147.49,-75.92 125.65,-109.54 -10.27,-15.82 -17.33,-17.47 -34.56,-12.72 -150.32,41.33 -268.24,120.88 -330.56,139.72 -20.19,6.1 -29.65,10.13 -34.45,-13.14 -6.71,-32.45 -18.03,-114.74 -24.9,-147.16 -8.76,-41.35 -9.74,-69.78 -62.65,-42.43 -16.22,8.38 -24.93,32.32 -23.1,49.65l0.23 2.17c9.14,86.31 13.46,182.82 -17.71,265.7 -48.35,128.66 -1234.04,332.33 -1465.74,504.54 -23.84,16.52 216,334.08 323.87,323.48z"/>
  <g id="_1749138523824">
   <g>
    <path class="fil15" d="M3190.43 744.31c720.73,-63.06 1441.42,-126.6 2162.17,-189.2 147.26,-12.79 273.75,58.43 326.92,198.51 9.54,26.17 14.3,49.64 17.11,77.28l190.38 2176.13c14.61,166.95 -110,315.46 -276.95,330.06l-2176.13 190.39c-166.96,14.6 -315.48,-110 -330.08,-276.95l-190.39 -2176.14c-14.61,-166.95 110.02,-315.47 276.97,-330.08z"/>
    <path class="fil16" d="M3439.67 3518.69c-165.98,14.52 -313.62,-109.37 -328.14,-275.35l-189.26 -2163.21c-14.52,-165.97 109.37,-313.62 275.34,-328.14l2163.21 -189.25c165.98,-14.52 313.62,109.36 328.14,275.34l189.26 2163.21c14.52,165.97 -109.37,313.62 -275.34,328.14l-2163.21 189.26zm1932.61 -2973.54l-2189 191.52c-167.94,14.69 -293.3,164.07 -278.61,332.01l191.51 2189c14.69,167.94 164.1,293.3 332.03,278.61l2189.01 -191.51c167.93,-14.7 293.28,-164.1 278.58,-332.03l-191.51 -2189.01c-14.69,-167.94 -164.07,-293.28 -332.01,-278.59z"/>
    <path class="fil3" d="M3111.53 3243.34c14.52,165.98 162.16,289.87 328.14,275.35l2163.21 -189.26c165.97,-14.52 289.86,-162.17 275.34,-328.14l-189.26 -2163.21c-14.52,-165.98 -162.16,-289.86 -328.14,-275.34l-2163.21 189.25c-165.97,14.52 -289.86,162.17 -275.34,328.14l189.26 2163.21zm2391.28 -13.03l-2045.98 179c-156.98,13.73 -296.61,-103.43 -310.35,-260.42l-179 -2045.98c-13.73,-156.99 103.43,-296.63 260.42,-310.37l2045.98 -179c156.98,-13.73 296.63,103.45 310.37,260.43l179 2045.98c13.73,156.99 -103.45,296.62 -260.44,310.36z"/>
    <path class="fil4" d="M3146.48 3148.89c5.27,60.26 29.08,114.64 65.31,158l-188.21 -2151.26c-14.02,-160.32 105.66,-302.93 266,-316.96l2089.72 -182.82c25.83,-2.26 51.2,-1.05 75.66,3.24 -51.88,-33.88 -114.93,-51.34 -181.08,-45.55l-2045.98 179c-156.99,13.74 -274.15,153.38 -260.42,310.37l179 2045.98z"/>
   </g>
   <path class="fil17" d="M4315.25 2900.35c-34.92,15.61 -75.99,28.97 -123.17,40.07 -47.2,11.11 -94.67,18.75 -142.46,22.93 -47.81,4.19 -93.72,5.77 -137.77,4.73 -44.07,-1.05 -81.14,-5.8 -111.19,-14.36 -18.57,-20.7 -33.31,-45.58 -44.22,-74.65 -10.91,-29.04 -19.29,-60.78 -25.08,-95.16 -5.82,-34.4 -10.36,-70.61 -13.69,-108.74 -3.33,-38.08 -6.7,-76.52 -10.09,-115.32 -10.79,-123.26 -18.75,-246.12 -23.87,-368.51 -5.14,-122.38 -13.09,-245.22 -23.88,-368.52 -1.93,-22.15 -3.51,-44.01 -4.67,-65.54 -1.2,-21.54 -4.14,-43.27 -8.84,-65.18 -2.49,-12.35 -9,-22.93 -19.56,-31.81 -10.53,-8.84 -21.63,-20.08 -33.29,-33.7 -11.68,-13.64 -22.7,-31.88 -33.05,-54.71 -10.38,-22.81 -17.43,-55.69 -21.19,-98.65 -3.76,-42.91 -4.99,-76.67 -3.64,-101.21 1.34,-24.56 4.88,-44.06 10.58,-58.51 5.75,-14.46 13.5,-25.27 23.37,-32.41 9.82,-7.15 22.12,-14.14 36.89,-21.02 11.96,-6.61 33,-13.71 63.05,-21.23 30.02,-7.49 63.24,-14.95 99.58,-22.32 36.36,-7.35 71.74,-13.59 106.2,-18.7 34.46,-5.13 62.05,-8.58 82.84,-10.4 90.04,-7.88 181.19,-15.15 273.43,-21.81 92.24,-6.69 182.14,-8.27 269.69,-4.76 87.56,3.5 170.61,15.42 249.14,35.77 78.58,20.37 148.45,53.32 209.65,98.91 61.22,45.62 111.98,107.13 152.27,184.55 40.25,77.45 65.62,175.72 76.05,294.87 9.09,103.89 1.76,191.77 -21.98,263.64 -23.7,71.87 -57.56,131.71 -101.54,179.52 -43.95,47.83 -95.45,85.5 -154.46,112.98 -59.02,27.49 -119.31,48.46 -180.86,62.94 -61.56,14.46 -122.08,24.29 -181.68,29.5 -59.56,5.21 -111.49,9.75 -155.84,13.63 -27.68,2.43 -49.41,5.39 -65.18,8.84 -15.75,3.48 -27.04,9.7 -33.96,18.67 -6.88,8.99 -10.71,21.19 -11.46,36.62 -0.73,15.41 0.04,36.27 2.35,62.61 1.45,16.61 3.97,37.34 7.53,62.16 3.58,24.79 7.23,50.64 10.96,77.56 3.76,26.87 7.42,52.74 11,77.55 3.54,24.82 6.06,45.51 7.51,62.14 2.06,23.54 0.24,42.55 -5.47,57.03zm-84.03 -1056.31c3.64,41.54 8.52,73.59 14.68,96.07 6.14,22.49 15.95,38.74 29.39,48.72 13.44,10.01 31.68,15.37 54.8,16.15 23.1,0.77 52.67,-0.43 88.67,-3.58 26.34,-2.3 55.52,-7.64 87.58,-16.01 32.08,-8.39 61.35,-21.09 87.75,-38.06 26.43,-16.97 48.25,-39.11 65.38,-66.42 17.15,-27.35 23.99,-61.09 20.48,-101.26 -1.82,-20.79 -7.85,-41.55 -18.02,-62.3 -10.2,-20.72 -26.06,-38.54 -47.61,-53.42 -21.55,-14.85 -49.38,-26.04 -83.55,-33.51 -34.17,-7.46 -76.17,-9.04 -126.04,-4.68 -40.17,3.52 -72.47,9.15 -96.92,16.87 -24.45,7.73 -42.93,19.81 -55.47,36.25 -12.49,16.46 -20.06,37.71 -22.68,63.75 -2.58,26.06 -2.07,59.88 1.56,101.43z"/>
  </g>
  <g id="_1749138522912">
   <path class="fil10" d="M1851.68 2701.73c-5.32,58.05 -1.99,136.83 -1.99,136.83 -117.8,169.18 -289.64,-25.82 -366.35,-23.91 15.9,-46.18 13.9,-79.59 25,-116.67 6.22,-4.91 -759.01,31.72 -1139.21,-572.14 -279.96,-444.64 -107.31,-1167.55 455.18,-1521.73 562.5,-354.17 1352.26,-125.45 1581.82,239.14 264.22,419.62 75.06,913.94 207.6,977.28 135.5,64.75 53.23,100.59 78.8,213.66 92.33,541.24 -511.22,676.94 -840.85,667.54z"/>
   <path class="fil18" d="M1530.36 2568.47l-27.24 160.17c-12.5,3.11 -20.87,11.03 -33.9,15.27 -57.19,18.61 -116.43,-11.29 -150.19,-53.73 -25.87,68.55 -184.55,121.63 -247.89,-46.88 -26.09,13.59 -27.89,29.31 -69.59,47.54 -88.71,38.79 -188.93,8.79 -195.3,-101.8 -39.74,6.84 -62.19,11.16 -88.3,-11.27 -7.6,-6.52 -16.48,-17.17 -23.74,-29.86l-17.96 -30.53c-69.2,29.23 -129.53,21.48 -170.02,-21.45 -51.71,-54.84 -40.67,-95.61 -39.86,-173.64 -43,8.64 -44.79,22.15 -93.36,4.45 -86.99,-31.71 -107.1,-98.28 -99.4,-191.99 -54.4,11.88 -102.3,-33.74 -116.51,-89.57 -27.38,-107.54 26,-98.77 37.64,-161.1 -200.61,31.19 -201.5,-272.4 -95.42,-252.61 5.66,26.77 -18.93,69.57 -6.99,119.49 9.05,37.87 37.89,74.31 71.23,72.21 -56.13,-77.03 -53.03,-99.29 -36.76,-198.18 3.99,-24.24 8.36,-44.46 13.4,-68.2 -164.93,112.77 -198.23,-307.87 -53.56,-242.18 -10.32,45.39 -40.32,37.66 -33.69,122 3.18,40.5 34.16,86.37 67.83,80.81 -31.07,-37.91 -45.27,-103.99 -21.99,-153.48 29.37,-62.42 16.97,31.75 48.05,-151.69 -26.45,33.14 -47.86,49.14 -79.56,11.02 -61.74,-74.27 -37.39,-278.87 73.68,-236.1 4.87,42.5 -70.51,69.51 -49.43,159.61 5.48,23.43 19.32,35.3 37.17,41.71 -8.36,-70.04 -15.27,-133.65 47.83,-185.93 24.42,2.94 34.74,10.84 53.8,17.49 -4.37,-75.96 -10.61,-134.53 15.59,-182.12 51.23,-93.09 146.37,-58.92 146.07,-91.01 -0.01,-1.13 -0.2,-3.16 -0.34,-4.37 -0.14,-1.27 -0.77,-3.16 -1.04,-4.5 -2.16,-10.81 -4.55,-5.92 -7.12,-26.28 -9.87,-78.13 47.72,-162 121.07,-188.12 58.62,-20.88 76.4,10.94 93.48,-8.77 16.47,-19.01 -14.58,-22.9 14.35,-102.3 26.74,-73.41 115.11,-88.84 185.21,-95.11 0.71,-0.07 2.55,-0.26 3.26,-0.38 26.22,-4.36 29.69,-10.04 47.59,8.88 9.95,-34.5 3.37,-26.85 30.18,-20.95 10.94,-111.96 121.11,-128.96 206.81,-117.04 43.12,6 55.47,5.25 68.27,38.12 26.05,-25.41 39.34,-97.39 157.35,-122.73 87.1,-18.71 50.74,1.55 118.28,14.23 -8.3,-40.78 -53.55,-60.46 -101.76,-59.54 -56.52,1.07 -80.5,26.45 -113.09,40.57 -17.58,-90.07 153.17,-111.37 221.63,-78.79 27.16,12.92 68.39,55.28 81.31,85.37 31.4,73.12 49.84,26.94 96.57,61.05 14.94,-27.89 25.07,-34.45 59.1,-48.21 27.11,-10.97 41.14,-4.85 64.92,8.41 -43.4,-59.63 -78.37,-32.27 -146.93,-15.03 -3.96,-49.2 20.06,-68.73 64.43,-77.18 121.7,-23.17 221.64,30.12 242.21,165.39 41.08,-8.57 -9.11,-15.04 38.38,-10.44 27.36,2.64 13.9,7.61 47.26,0.56 -11.89,-20.2 2.45,-4.87 -19.54,-16.24 -13.42,-6.94 -64.93,-19.95 -34.2,-45.48 22.09,-18.35 65.21,-22.86 72.41,53.03 36.51,-16.1 64.81,-35.9 112.81,-27.72 104.93,17.89 175.84,143.14 162.34,243.96l35.56 1.41c-31.07,-113.46 196.95,-64.46 202.18,87.58 1.27,36.85 -31.13,90.59 -17.9,102.12 23.6,20.58 118.73,-18.09 162.98,86.17 11.88,28 14.22,70.42 8.47,99.52 -10.76,54.43 -25.85,55.73 -37.57,88.95 38.91,11.4 57.67,14.82 79.86,43.93 41.54,54.51 27.66,135.12 -13.91,184.78 -19.75,23.59 -51.5,30.51 -78.74,43.88 23.98,47.88 65.98,67.08 36.42,146.77 -6.76,18.22 -29.08,48.38 -39.53,58.91 -19,19.15 -38.39,19.4 -64.64,29.66 -13,-16.4 -31.79,-117.03 -46.38,-149.57 -86.46,-192.84 -58.59,-102.84 -121.65,-132.68 -16.65,-7.87 -17.24,-16.03 -34.15,-26.58 -58.24,26.01 -40.47,69.44 -170.93,48.73 -0.78,1.64 -1.29,3.94 -1.63,5.18l-2.96 10.69c-0.51,2.13 -1.82,8.95 -2.32,11.19 -2.26,9.99 -2.16,12.38 -5.17,21.04 -3.9,11.25 -13.05,25.71 -19.14,32.78 -14.4,16.73 -40.18,36.78 -69.83,44.67 -84.28,22.41 -121.88,-13.17 -154.04,-66.11l-33.17 16.86c15.25,32.06 33.62,46.59 26.61,95.36 -11.42,79.46 -100.43,178.14 -210.78,108.15 -0.82,1.47 -1.4,3.67 -1.73,4.73 -19.26,62.6 1.82,10.49 -27.13,63.15 33.31,20.94 54.45,23.73 71.18,60.39 36.66,80.32 -17.39,168.8 -111.04,195.84 -28.93,8.36 -32.27,0.32 -38.13,21.42 16.43,30.12 72.11,4.79 65.09,96.76 -5.21,68.26 -52.32,77.61 -69.93,90.32 7.82,15.37 3.88,6.57 17.24,15.53 62.4,41.82 51.07,133.07 -32.79,123.95 0.16,0.83 43.1,94.56 -66.01,91.89 -24.07,-0.6 -49.04,-16.93 -58.97,-26.42 -21.96,-20.99 -16.39,-36.06 -21.26,-69.08 -8.19,-55.68 -131.12,-151.47 -180.3,-164.63 -58.67,-19 -87.96,-35.77 -166.35,-22.13 -386.55,67.27 -254.39,670.54 166.2,665.67 35.7,-0.42 71.91,-7.56 104.17,-16.25 135.33,-36.5 54.78,-54.85 154.39,29.44 7.05,5.95 14.01,11.68 20.9,17.19zm-766.1 -2278.79c-8.59,-63.43 -110.75,-56.01 -167.87,-30.72 -133.72,59.22 -90.73,262.58 -42.87,177.91 15.5,-27.41 4.14,-43.57 35.08,-83.17 47.65,-60.98 85.22,-47.79 175.66,-64.02z"/>
   <path class="fil19" d="M1336.81 2121.66c23.04,55.95 -46.92,189.23 -96.79,40.56 -71.31,12.89 -356.72,39.17 -224.92,-85.64 86.27,-81.68 254.7,-33.1 321.71,45.08z"/>
  </g>
  <path class="fil18" d="M1206.05 4373.99c315.27,108.66 961.99,8.7 1045.71,-14.61 -33,284.76 -83.07,1166.11 -111.08,1272.52 -303.73,143.32 -548.96,66.29 -590.05,-9.08 -2.89,-7.11 -15.5,-91.11 -17.4,-102.69 -26.12,-159.45 -52.21,-322.82 -85.68,-480.7 -18.71,-88.07 -3.66,-81.02 -58.52,-126.53 -101.18,-83.96 -190.66,-398.11 -183.89,-527.73 0.2,-3.78 0.51,-7.42 0.91,-11.18z"/>
  <path class="fil8" d="M1500.03 2765.61c66.73,10.65 329.08,52.09 349.66,72.95 49.93,50.59 106.42,101.62 150.57,163.49 267.93,375.62 261.99,833.2 251.5,1357.33 -75.86,77.95 -313.96,82.34 -528.14,88.96 -323.67,10.01 -554.15,-22.64 -557.56,-70.87 46.29,-474.74 -1.48,-920.92 111.76,-1299.69 33.56,-112.3 135.49,-216.74 222.21,-312.17z"/>
  <path class="fil9" d="M2073.75 2787.63c-78.32,85.91 -37.79,412.92 124.04,613.53 15.92,-79.36 -54.94,-470.2 -124.04,-613.53z"/>
  <path class="fil10" d="M2047.25 3339.52c220.72,-21.67 1288.34,-600.42 1246.71,-655.24 104.23,-25.04 216.01,-7.43 323.23,-35.09 60.07,-15.49 88.07,-37.13 83.79,-69.8 -4,-30.66 -130.73,12.69 -163.03,19.66 48.12,-21.79 96.22,-43.69 144.38,-65.35 44.63,-20.06 67.07,-24.48 65.23,-55.59 -2.67,-44.84 -209.57,56.4 -197.98,50.09 10.94,-5.95 21.91,-11.93 32.83,-17.89 46.47,-25.33 93,-50.64 139.47,-75.97 30.54,-16.64 77.27,-26.98 69.19,-67.06 -3.11,-15.44 -16.21,-28.25 -53.25,-14.78 -75.97,27.64 -152.9,54.22 -229.11,81.24 27.48,-18.17 54.97,-36.34 82.46,-54.49 31.59,-20.85 147.49,-75.92 125.65,-109.54 -10.27,-15.82 -17.33,-17.47 -34.56,-12.72 -150.32,41.33 -268.24,120.88 -330.56,139.72 -20.19,6.1 -29.65,10.13 -34.45,-13.14 -6.71,-32.45 -18.03,-114.74 -24.9,-147.16 -8.76,-41.35 -9.74,-69.78 -62.65,-42.43 -16.22,8.38 -24.93,32.32 -23.1,49.65l0.23 2.17c9.14,86.31 13.46,182.82 -17.71,265.7 -48.35,128.66 -1234.04,332.33 -1465.74,504.54 -23.84,16.52 216,334.08 323.87,323.48z"/>
  <path class="fil8" d="M2197.79 3401.16c-70.45,-179.97 -120,-478.1 -124.04,-613.53 -434.09,100.16 -575.81,249.85 -548.09,426.74 29.34,187.25 274.16,247.57 672.13,186.79z"/>
  <path class="fil20" d="M2197.79 3401.16c-70.45,-179.97 -120,-478.1 -124.04,-613.53 -434.09,100.16 -575.81,249.85 -548.09,426.74 29.34,187.25 274.16,247.57 672.13,186.79z"/>
  <g id="_1749138551520">
   <path class="fil21" d="M16548.09 3203.99c-51.19,8.98 -169.17,222.33 -155.81,268.22 -263.33,-147.51 -340.77,-311.87 -399.22,-361.19 42.39,-23.92 224.74,-128.09 223.16,-190.33 7.89,0.46 -568.45,-452.64 -452.65,-1154.47 85.28,-516.78 692.14,-941.74 1345.89,-833.88 653.75,107.86 1091.5,800.76 1021.59,1224.5 -80.47,487.7 -548.47,731.27 -491.51,866.16 58.24,137.91 -26.82,110.23 -82.53,211.47 -218.78,353.52 -521.8,216.29 -789.34,81.69 -59.25,-29.81 -165.11,-87.97 -219.58,-112.17z"/>
   <path class="fil22" d="M17074.79 2514.73c-308.35,-92.05 -530.84,343.13 -603.93,611.64 98.32,-608.68 206.33,-560.95 293.46,-736.48 99.13,-121.49 35.33,-286.58 -88.48,-339.1 -107.72,-45.69 -209.04,-34.19 -277.37,22.62 -114.16,94.95 -145.58,472.59 24.69,519.21 -29.11,52.97 -177.05,324.92 -226.96,313.55 -303.31,-169.96 -542.08,-818.3 -390.43,-1213.42 -95.03,-47.97 -249.56,-60.88 -319.96,-24.18 -194.22,101.19 59.69,170.88 69.63,176.74 -271.33,69.35 -707.67,-540.65 -40.37,-764.47 -79.73,-126.35 -402.47,290.32 -443.53,-31.97 183.75,211.79 167.46,-10.26 367.29,-23.66 288.55,-19.32 205.95,23.25 299.21,-275.22 141.2,-451.87 698.1,-513.25 1012.75,-206.42 29.99,29.26 176.06,206.57 78.29,348.35 1472.95,-24.31 1939.37,1458.47 961.79,1965.26 46.29,-138.89 97.51,-200.26 158.85,-281.21 -131.72,74.75 -352.92,94.6 -874.93,-61.24z"/>
   <path class="fil23" d="M16726.25 2345.38c-16.78,57.41 -153.1,117.05 -99.74,-28.49 -63,-34.09 -299.49,-190.12 -120.68,-205.01 117.04,-9.75 217,131.77 220.42,233.5z"/>
   <path class="fil24" d="M16716.81 929.47c5.17,-29.61 2.5,-62.81 -10.66,-99.71l-66.03 -23.22c-59.67,69.83 -107.52,98.09 -178.43,125.4 -106.41,40.99 -150.42,-7.32 -186.6,109.13 8.07,10.98 14.99,21.05 21.92,30.05 24.04,31.25 48.18,49.77 120.57,49.89 100.03,0.18 276.32,-60.61 299.23,-191.54z"/>
  </g>
  <path class="fil25" d="M15428.1 5933.71l-110.99 -1170.81c75.37,-62 150.73,-124 226.1,-186 16.68,389.4 43.26,563.94 62.41,921.23 10.07,252.5 34.95,502.54 30.2,757.51l-198.83 18.98 -8.89 -340.91z"/>
  <path class="fil21" d="M15439.96 4800.43c32.06,284.07 141.1,580.27 123.34,788.01 -7.61,88.94 -1.47,449.55 3.96,679.25 -54.48,67.59 -225.99,48.86 -304.09,35.79 -14.14,-222.22 -33.1,-442.41 -81.92,-624.7 -81.72,-305.11 -189.6,-546.23 -270.81,-853.92 25.86,-20.6 441.98,-43.76 516.02,-116.77l13.5 92.34z"/>
  <g id="_1749141886352">
   <path class="fil11" d="M16018 6522.12c11.24,3.22 49.45,-0.54 64.11,-2.41 33.51,-4.25 66.2,-14.64 96.63,-34.17 24.99,-16.05 41.7,-34.6 55.58,-57.32 9.59,-15.68 14.51,-25.63 13.55,-35.16 20.4,52.31 9.75,89.19 -27.98,131.27l-16.31 15.85c-49.78,42.22 -122.11,54.97 -187.92,58.08l-38.22 0.67c-22.19,-0.33 -69.65,-2.73 -92.35,-5.83l-166.01 -26.15c-44.92,-7.07 -123.73,-17.58 -167.54,-4.78l-55.7 17.69c-61.66,16.67 -172.27,16.41 -222.87,-14.05 -18.69,-11.23 -20.1,-16.35 -23.22,-33.44 -14.13,-77.45 19.12,-88.86 23.42,-155.32 0.59,4.33 3.19,8.63 9.69,15.32 15.52,15.97 46.78,22.11 63.73,24.88 48.43,7.9 42.62,-4.4 95.91,16.04 10.97,4.19 20.54,7.68 31.85,11.97 2.98,1.15 4.41,1.91 7.36,2.92 21.1,7.38 34.49,7.84 56.53,10.85 44.74,6.19 71.75,3.35 112.03,8.86 37.44,5.13 74.82,15.1 111.82,23.06 12.74,2.73 55.15,13.33 63.9,13.49 30.95,0.58 64.65,-42.45 96.58,-31.51 26.97,9.22 61.52,39.45 95.43,49.19z"/>
   <path class="fil26" d="M16228.57 6362.83c12.29,12.65 18.4,21.25 19.3,30.23 0.96,9.53 -3.96,19.48 -13.55,35.16 -13.88,22.72 -30.59,41.27 -55.58,57.32 -30.43,19.53 -63.12,29.92 -96.63,34.17 -14.66,1.87 -52.87,5.63 -64.11,2.41 -33.91,-9.74 -68.46,-39.97 -95.43,-49.19 -31.93,-10.94 -65.63,32.09 -96.58,31.51 -8.75,-0.16 -51.16,-10.76 -63.9,-13.49 -37,-7.96 -74.38,-17.93 -111.82,-23.06 -40.28,-5.51 -67.29,-2.67 -112.03,-8.86 -22.04,-3.01 -35.43,-3.47 -56.53,-10.85 -2.95,-1.01 -4.38,-1.77 -7.36,-2.92 -11.31,-4.29 -20.88,-7.78 -31.85,-11.97 -53.29,-20.44 -47.48,-8.14 -95.91,-16.04 -16.95,-2.77 -48.21,-8.91 -63.73,-24.88 -6.5,-6.69 -9.1,-10.99 -9.72,-15.28 -0.68,-4.87 1.22,-9.76 3.03,-18.11 6.28,-29.17 20.74,-90.73 21.79,-118 71.92,-18.39 105.28,-68.02 140.59,-49.37 12.25,6.47 21.04,9.77 33.09,12.89 51.7,13.42 85.76,11.8 130.93,-19.61l32.46 -27.8c-46.86,-48.23 3.8,-133.02 65.13,-72.99 12.68,12.44 40.21,34.25 56.34,48.68 12.57,-10 21.82,-17.84 37.64,-2.17 8.67,8.59 5.76,25.9 4.9,36.84 3.13,2.51 6.14,4.61 9.16,6.83 12.69,-5.99 28.06,-9.59 40.31,4.24 4.72,5.33 1.72,18.3 -0.08,26.33l5.73 4.04c37.62,-13.31 46.78,8.28 46.38,31.38 3,1.76 6.02,3.3 9.12,5.5 16.46,-2.04 47.81,-4.57 41.1,24.46 3.63,2.14 7.45,3.77 11.29,5.94 8.34,-3.81 22.51,-6.19 29.06,-3.08 2.33,1.11 15.39,9.75 15.03,23.73l7.65 3.23c2.62,1.08 4.6,1.67 6.5,2.31 22.4,-13.75 37.25,-14.36 47.75,13.01 4.34,0.8 8.72,1.42 13.29,1.58 48.35,1.8 110.17,7.73 147.24,45.88zm-218.01 -9.3c18.55,19.1 38.78,-20.89 46.79,-36.88 7.18,-14.32 -25.27,-24.04 -31.95,-8.68 -5.07,11.62 -24.87,35.24 -14.84,45.56zm-60.05 -24.29c19.78,20.35 30.5,-5.9 37.23,-16.71 2.94,-4.74 6.26,-11.48 9.67,-16.2 7.33,-10.25 -20.79,-24.72 -29.45,-12.23 -6.09,8.71 -26.25,36.09 -17.45,45.14zm-57 -40.26c-3.32,14.44 14.01,26.16 26.56,13.95 9.23,-8.96 13.37,-23.2 22.57,-33.83 10.18,-11.88 -21.82,-25.54 -29.61,-13.53 -6.31,9.84 -18.49,28.96 -19.52,33.41zm-48.14 -17.95c16.3,16.77 33.6,-19.27 42.97,-33.37 10.95,-16.37 -15.11,-33.81 -26.46,-18.3 -5.15,7.08 -10.67,17.4 -15.19,24.58 -6.17,9.84 -10.51,17.65 -1.32,27.09zm-29.06 -37.38c11.26,-10.94 15.18,-23.43 21.66,-32.49 14.46,-20.17 -15.72,-37.06 -31.64,-9.57 -3.08,5.34 -6.02,10.98 -9.14,15.89 -18.55,29.29 8.89,36.12 19.12,26.17zm-48.76 -37.69c10.42,-10.1 15.88,-20.49 23.94,-35.38 6.12,-14.37 -12.96,-40.1 -28.76,-21.68 -4.28,11.66 -18.07,31.25 -21.39,41.91 -4.56,14.62 13.07,27.95 26.21,15.15z"/>
   <path class="fil4" d="M16057.35 6316.65c-8.01,15.99 -28.24,55.98 -46.79,36.88 -10.03,-10.32 9.77,-33.94 14.84,-45.56 6.68,-15.36 39.13,-5.64 31.95,8.68z"/>
   <path class="fil4" d="M15987.74 6312.53c-6.73,10.81 -17.45,37.06 -37.23,16.71 -8.8,-9.05 11.36,-36.43 17.45,-45.14 8.66,-12.49 36.78,1.98 29.45,12.23 -3.41,4.72 -6.73,11.46 -9.67,16.2z"/>
   <path class="fil4" d="M15942.64 6269.1c-9.2,10.63 -13.34,24.87 -22.57,33.83 -12.55,12.21 -29.88,0.49 -26.56,-13.95 1.03,-4.45 13.21,-23.57 19.52,-33.41 7.79,-12.01 39.79,1.65 29.61,13.53z"/>
   <path class="fil4" d="M15888.34 6237.66c-9.37,14.1 -26.67,50.14 -42.97,33.37 -9.19,-9.44 -4.85,-17.25 1.32,-27.09 4.52,-7.18 10.04,-17.5 15.19,-24.58 11.35,-15.51 37.41,1.93 26.46,18.3z"/>
   <path class="fil4" d="M15837.97 6201.16c-6.48,9.06 -10.4,21.55 -21.66,32.49 -10.23,9.95 -37.67,3.12 -19.12,-26.17 3.12,-4.91 6.06,-10.55 9.14,-15.89 15.92,-27.49 46.1,-10.6 31.64,9.57z"/>
   <path class="fil4" d="M15791.49 6160.58c-8.06,14.89 -13.52,25.28 -23.94,35.38 -13.14,12.8 -30.77,-0.53 -26.21,-15.15 3.32,-10.66 17.11,-30.25 21.39,-41.91 15.8,-18.42 34.88,7.31 28.76,21.68z"/>
  </g>
  <g id="_1749141885776">
   <path class="fil11" d="M15905.64 6559.65c11.25,3.22 49.46,-0.55 64.12,-2.42 33.51,-4.24 66.2,-14.63 96.62,-34.16 25,-16.05 41.7,-34.6 55.59,-57.32 9.59,-15.68 14.51,-25.63 13.55,-35.16 20.39,52.31 9.75,89.19 -27.98,131.27l-16.31 15.85c-49.78,42.22 -122.11,54.97 -187.92,58.08l-38.22 0.67c-22.19,-0.33 -69.65,-2.73 -92.35,-5.83l-166.01 -26.15c-44.92,-7.08 -123.74,-17.59 -167.54,-4.78l-55.7 17.69c-61.66,16.66 -172.28,16.41 -222.88,-14.05 -18.68,-11.23 -20.09,-16.35 -23.21,-33.44 -14.13,-77.45 19.12,-88.86 23.42,-155.32 0.59,4.33 3.19,8.63 9.69,15.31 15.52,15.98 46.78,22.12 63.73,24.89 48.43,7.9 42.62,-4.4 95.9,16.04 10.98,4.19 20.55,7.68 31.86,11.97 2.98,1.14 4.41,1.91 7.36,2.92 21.1,7.38 34.49,7.83 56.52,10.85 44.75,6.18 71.76,3.34 112.04,8.86 37.44,5.13 74.81,15.1 111.82,23.05 12.73,2.73 55.14,13.34 63.89,13.5 30.96,0.58 64.66,-42.45 96.59,-31.51 26.97,9.22 61.52,39.44 95.42,49.19z"/>
   <path class="fil26" d="M16116.22 6400.36c12.28,12.65 18.4,21.25 19.3,30.23 0.96,9.53 -3.96,19.48 -13.55,35.16 -13.89,22.72 -30.59,41.27 -55.59,57.32 -30.42,19.53 -63.11,29.92 -96.62,34.16 -14.66,1.87 -52.87,5.64 -64.12,2.42 -33.9,-9.75 -68.45,-39.97 -95.42,-49.19 -31.93,-10.94 -65.63,32.09 -96.59,31.51 -8.75,-0.16 -51.16,-10.77 -63.89,-13.5 -37.01,-7.95 -74.38,-17.92 -111.82,-23.05 -40.28,-5.52 -67.29,-2.68 -112.04,-8.86 -22.03,-3.02 -35.42,-3.47 -56.52,-10.85 -2.95,-1.01 -4.38,-1.78 -7.36,-2.92 -11.31,-4.29 -20.88,-7.78 -31.86,-11.97 -53.28,-20.44 -47.47,-8.14 -95.9,-16.04 -16.95,-2.77 -48.21,-8.91 -63.73,-24.89 -6.5,-6.68 -9.1,-10.98 -9.72,-15.27 -0.68,-4.87 1.22,-9.76 3.03,-18.11 6.28,-29.17 20.74,-90.73 21.79,-118 1.01,-25.98 5.57,-70.42 24.06,-88.39l0.56 -0.54c12.07,-11.58 41.66,-36.04 55.23,-22.07 23.28,23.95 28.28,44.48 60.74,61.62 12.24,6.47 21.03,9.78 33.09,12.9 51.7,13.42 85.76,11.8 130.92,-19.61l32.46 -27.81c-46.86,-48.22 3.81,-133.01 65.14,-72.98 12.68,12.43 40.21,34.25 56.33,48.67 12.57,-9.99 21.83,-17.84 37.65,-2.17 8.67,8.6 5.76,25.91 4.9,36.84 3.12,2.52 6.14,4.62 9.16,6.84 12.69,-5.99 28.06,-9.59 40.31,4.23 4.72,5.34 1.72,18.31 -0.09,26.33l5.74 4.04c37.62,-13.3 46.77,8.29 46.38,31.39 3,1.76 6.02,3.3 9.12,5.5 16.46,-2.04 47.81,-4.58 41.1,24.46 3.63,2.14 7.45,3.76 11.28,5.93 8.34,-3.8 22.51,-6.18 29.06,-3.07 2.34,1.11 15.4,9.75 15.03,23.73l7.66 3.23c2.62,1.08 4.6,1.67 6.5,2.31 22.4,-13.75 37.25,-14.36 47.74,13.01 4.35,0.8 8.73,1.42 13.3,1.58 48.35,1.8 110.17,7.73 147.24,45.88zm-218.01 -9.3c18.55,19.1 38.77,-20.9 46.79,-36.88 7.18,-14.32 -25.27,-24.04 -31.96,-8.68 -5.06,11.61 -24.87,35.24 -14.83,45.56zm-60.05 -24.3c19.78,20.36 30.49,-5.89 37.22,-16.7 2.95,-4.74 6.27,-11.48 9.68,-16.2 7.33,-10.26 -20.79,-24.72 -29.46,-12.23 -6.08,8.7 -26.24,36.08 -17.44,45.13zm-57 -40.25c-3.32,14.44 14,26.15 26.56,13.95 9.23,-8.97 13.36,-23.2 22.56,-33.84 10.19,-11.87 -21.81,-25.53 -29.6,-13.52 -6.31,9.84 -18.5,28.96 -19.52,33.41zm-48.14 -17.95c16.29,16.76 33.6,-19.27 42.97,-33.37 10.94,-16.37 -15.11,-33.81 -26.46,-18.31 -5.16,7.09 -10.67,17.41 -15.19,24.59 -6.17,9.84 -10.51,17.65 -1.32,27.09zm-29.06 -37.38c11.26,-10.94 15.17,-23.43 21.66,-32.49 14.45,-20.18 -15.73,-37.06 -31.64,-9.57 -3.09,5.34 -6.02,10.98 -9.15,15.89 -18.55,29.29 8.9,36.12 19.13,26.17zm-48.76 -37.69c10.41,-10.1 15.87,-20.49 23.94,-35.38 6.12,-14.37 -12.97,-40.1 -28.76,-21.68 -4.29,11.66 -18.07,31.25 -21.39,41.91 -4.56,14.62 13.06,27.95 26.21,15.15z"/>
   <path class="fil4" d="M15945 6354.18c-8.02,15.98 -28.24,55.98 -46.79,36.88 -10.04,-10.32 9.77,-33.95 14.83,-45.56 6.69,-15.36 39.14,-5.64 31.96,8.68z"/>
   <path class="fil4" d="M15875.38 6350.06c-6.73,10.81 -17.44,37.06 -37.22,16.7 -8.8,-9.05 11.36,-36.43 17.44,-45.13 8.67,-12.49 36.79,1.97 29.46,12.23 -3.41,4.72 -6.73,11.46 -9.68,16.2z"/>
   <path class="fil4" d="M15830.28 6306.62c-9.2,10.64 -13.33,24.87 -22.56,33.84 -12.56,12.2 -29.88,0.49 -26.56,-13.95 1.02,-4.45 13.21,-23.57 19.52,-33.41 7.79,-12.01 39.79,1.65 29.6,13.52z"/>
   <path class="fil4" d="M15775.99 6275.19c-9.37,14.1 -26.68,50.13 -42.97,33.37 -9.19,-9.44 -4.85,-17.25 1.32,-27.09 4.52,-7.18 10.03,-17.5 15.19,-24.59 11.35,-15.5 37.4,1.94 26.46,18.31z"/>
   <path class="fil4" d="M15725.62 6238.69c-6.49,9.06 -10.4,21.55 -21.66,32.49 -10.23,9.95 -37.68,3.12 -19.13,-26.17 3.13,-4.91 6.06,-10.55 9.15,-15.89 15.91,-27.49 46.09,-10.61 31.64,9.57z"/>
   <path class="fil4" d="M15679.14 6198.11c-8.07,14.89 -13.53,25.28 -23.94,35.38 -13.15,12.8 -30.77,-0.53 -26.21,-15.15 3.32,-10.66 17.1,-30.25 21.39,-41.91 15.79,-18.42 34.88,7.31 28.76,21.68z"/>
  </g>
  <path class="fil27" d="M16144.28 4017.42c122.84,154.69 1071.69,674.02 1092.6,616.38 69.09,65.91 109.92,158.06 182.41,224.93 40.61,37.47 70.32,47.97 92.71,28.98 21.01,-17.8 -72.65,-91.69 -93.48,-112.5 39.56,25.49 79.18,50.9 118.65,76.48 36.58,23.7 50.73,38.36 73.12,21.96 32.26,-23.67 -143.45,-129.59 -133.13,-123.96 9.74,5.31 19.51,10.63 29.25,15.92 41.4,22.54 82.82,45.13 124.23,67.67 27.2,14.81 57.51,44.79 83.61,19.38 10.04,-9.78 13.3,-25.77 -14.67,-46.99 -57.38,-43.5 -114.44,-88.23 -171.48,-132.2 26.88,11.79 53.75,23.58 80.62,35.38 30.86,13.58 128.06,73.7 142.67,41.11 6.88,-15.33 4.7,-21.4 -7.18,-32 -103.55,-92.52 -220.04,-142.34 -264.25,-179.87 -14.31,-12.16 -21.9,-17.29 -6.81,-32.13 21.04,-20.69 77.16,-68.92 98.1,-89.72 26.71,-26.53 47.51,-41 1.49,-67.38 -14.11,-8.09 -36.23,-3.04 -48.31,6.7l-1.53 1.22c-60.16,48.54 -130.3,98.39 -207.38,115.1 -119.63,25.97 -844.84,-762.9 -1085.64,-853.09 -23.88,-9.86 -145.65,323.02 -85.6,398.63z"/>
  <path class="fil6" d="M20913.35 5743c-197.51,-3.29 -1187.13,-439.94 -1154.14,-491.61 -94.33,-14.7 -192.3,9.01 -289.49,-7.8 -54.44,-9.41 -80.86,-26.59 -79.42,-55.91 1.33,-27.51 116.97,1.82 146.15,5.68 -44.29,-15.87 -88.57,-31.84 -132.9,-47.58 -41.07,-14.59 -61.31,-16.9 -61.93,-44.64 -0.86,-40.01 190.14,34.92 179.39,30.16 -10.15,-4.5 -20.31,-9.01 -30.44,-13.51 -43.09,-19.13 -86.22,-38.24 -129.31,-57.37 -28.31,-12.57 -70.55,-18.36 -66.27,-54.53 1.65,-13.93 12.35,-26.25 46.21,-16.97 69.44,19.04 139.66,37.08 209.27,55.57 -25.71,-14.15 -51.43,-28.29 -77.15,-42.42 -29.55,-16.22 -136.42,-56.74 -119.46,-88.17 7.97,-14.79 14.12,-16.76 29.76,-13.79 136.43,25.84 246.87,87.93 303.56,100.15 18.36,3.96 27.05,6.86 29.64,-14.14 3.61,-29.3 7.71,-103.17 11.46,-132.45 4.79,-37.34 3.61,-62.66 52.55,-42.2 15.01,6.27 24.47,26.89 24.1,42.41l-0.05 1.95c-1.88,77.28 1.27,163.27 34.93,234.6 52.21,110.72 1119.55,205.85 1337.69,342 22.36,12.94 -167.62,312.19 -264.15,310.57z"/>
  <path class="fil18" d="M15678.33 5183.23c-47.63,22.27 -815.89,102.51 -839.08,76.23 12.49,-330.2 -445.91,-857.62 -104.31,-1447.9 1.41,0.38 789.15,648.68 983.31,743.16 -43.3,97.33 -24.35,565.05 -39.92,628.51z"/>
  <path class="fil8" d="M16438.19 3338.31c25.58,25.01 14.34,60.14 11.02,68.58 -105.12,267.36 -225.31,465.15 -395.06,694.1 -104.73,141.27 -215.43,279.28 -306,430.36 -20.41,34.03 -34.23,23.99 -68.16,12.81 -75.12,-24.76 -141.5,-47.71 -214.16,-79.79 -300.49,-132.72 -530.66,-331.35 -721.37,-597.41 -8.7,-12.17 -36.8,-46.14 -33.96,-60.71 1.89,-9.64 27.14,-31.06 35.22,-39.09 323.12,-319.67 885.76,-570.5 1312.8,-721.15 14.31,-5.05 48.69,-21.09 61.6,-15.05 25.56,11.97 117.42,140.65 139.33,170.17 25.66,34.55 113.78,158.75 161.71,156.93 6.83,-0.26 11.01,-11.7 17.03,-19.75z"/>
  <ellipse class="fil28" transform="matrix(0.271774 -0 2.71361 2.74272 20551.5 9386.54)" rx="8923.46" ry="70.1"/>
  <g id="_1749141869504">
   <path class="fil29" d="M772.33 6637.08c723.48,0 1446.97,-0.48 2170.43,-0.04 147.81,0.1 267.61,82.07 308.37,226.25 7.22,26.9 9.92,50.7 10.31,78.48l0 2184.45c0,167.58 -137.08,304.66 -304.66,304.66l-2184.45 0c-167.59,0 -304.69,-137.08 -304.69,-304.66l0 -2184.45c0,-167.59 137.1,-304.69 304.69,-304.69z"/>
   <path class="fil30" d="M778.82 9422.62c-166.61,0 -302.9,-136.28 -302.9,-302.89l0 -2171.47c0,-166.61 136.29,-302.9 302.9,-302.9l2171.47 0c166.61,0 302.89,136.29 302.89,302.9l0 2171.47c0,166.61 -136.28,302.89 -302.89,302.89l-2171.47 0zm2184.41 -2793.78l-2197.36 0c-168.58,0 -306.49,137.89 -306.49,306.47l0 2197.36c0,168.58 137.91,306.49 306.49,306.49l2197.36 0c168.58,0 306.47,-137.91 306.47,-306.49l0 -2197.36c0,-168.58 -137.89,-306.47 -306.47,-306.47z"/>
   <path class="fil3" d="M475.92 9119.73c0,166.61 136.29,302.89 302.9,302.89l2171.47 0c166.61,0 302.89,-136.28 302.89,-302.89l0 -2171.47c0,-166.61 -136.28,-302.9 -302.89,-302.9l-2171.47 0c-166.61,0 -302.9,136.29 -302.9,302.9l0 2171.47zm2383.32 195.43l-2053.79 0c-157.59,0 -286.48,-128.89 -286.48,-286.48l0 -2053.79c0,-157.59 128.89,-286.49 286.48,-286.49l2053.79 0c157.59,0 286.49,128.9 286.49,286.49l0 2053.79c0,157.59 -128.9,286.48 -286.49,286.48z"/>
   <path class="fil4" d="M518.97 9028.68c0,60.49 18.98,116.74 51.3,163.1l0 -2159.49c0,-160.92 131.66,-292.56 292.6,-292.56l2097.71 0c25.93,0 51.09,3.41 75.09,9.82 -48.73,-38.27 -110.02,-61.15 -176.43,-61.15l-2053.79 0c-157.59,0 -286.48,128.9 -286.48,286.49l0 2053.79z"/>
  </g>
  <g id="_1749141864320">
   <path class="fil31" d="M3576.55 3826.76c723.49,0 1446.97,-0.48 2170.44,-0.04 147.81,0.1 267.61,82.07 308.37,226.25 7.22,26.9 9.92,50.7 10.31,78.48l0 2184.45c0,167.59 -137.08,304.66 -304.67,304.66l-2184.45 0c-167.59,0 -304.68,-137.07 -304.68,-304.66l0 -2184.45c0,-167.59 137.09,-304.69 304.68,-304.69z"/>
   <path class="fil32" d="M3583.04 6612.3c-166.61,0 -302.89,-136.28 -302.89,-302.89l0 -2171.47c0,-166.61 136.28,-302.9 302.89,-302.9l2171.47 0c166.61,0 302.9,136.29 302.9,302.9l0 2171.47c0,166.61 -136.29,302.89 -302.9,302.89l-2171.47 0zm2184.42 -2793.78l-2197.37 0c-168.58,0 -306.48,137.89 -306.48,306.47l0 2197.36c0,168.58 137.9,306.49 306.48,306.49l2197.37 0c168.58,0 306.47,-137.91 306.47,-306.49l0 -2197.36c0,-168.58 -137.89,-306.47 -306.47,-306.47z"/>
   <path class="fil3" d="M3280.15 6309.41c0,166.61 136.28,302.89 302.89,302.89l2171.47 0c166.61,0 302.9,-136.28 302.9,-302.89l0 -2171.47c0,-166.61 -136.29,-302.9 -302.9,-302.9l-2171.47 0c-166.61,0 -302.89,136.29 -302.89,302.9l0 2171.47zm2383.32 195.43l-2053.8 0c-157.59,0 -286.47,-128.89 -286.47,-286.48l0 -2053.79c0,-157.59 128.88,-286.49 286.47,-286.49l2053.8 0c157.58,0 286.49,128.9 286.49,286.49l0 2053.79c0,157.59 -128.91,286.48 -286.49,286.48z"/>
   <path class="fil4" d="M3323.2 6218.36c0,60.49 18.98,116.74 51.29,163.1l0 -2159.49c0,-160.92 131.66,-292.56 292.61,-292.56l2097.7 0c25.93,0 51.1,3.41 75.1,9.82 -48.74,-38.27 -110.03,-61.15 -176.43,-61.15l-2053.8 0c-157.59,0 -286.47,128.9 -286.47,286.49l0 2053.79z"/>
  </g>
  <g id="_1749141860336">
   <path class="fil15" d="M6373.79 1024.49c723.48,0 1446.97,-0.49 2170.43,-0.04 147.81,0.1 267.61,82.07 308.37,226.25 7.22,26.9 9.92,50.7 10.31,78.48l0 2184.44c0,167.59 -137.08,304.67 -304.66,304.67l-2184.45 0c-167.59,0 -304.69,-137.08 -304.69,-304.67l0 -2184.44c0,-167.59 137.1,-304.69 304.69,-304.69z"/>
   <path class="fil16" d="M6380.28 3810.03c-166.61,0 -302.9,-136.28 -302.9,-302.89l0 -2171.48c0,-166.6 136.29,-302.89 302.9,-302.89l2171.47 0c166.61,0 302.89,136.29 302.89,302.89l0 2171.48c0,166.61 -136.28,302.89 -302.89,302.89l-2171.47 0zm2184.41 -2793.78l-2197.36 0c-168.58,0 -306.49,137.89 -306.49,306.47l0 2197.36c0,168.58 137.91,306.49 306.49,306.49l2197.36 0c168.58,0 306.47,-137.91 306.47,-306.49l0 -2197.36c0,-168.58 -137.89,-306.47 -306.47,-306.47z"/>
   <path class="fil3" d="M6077.38 3507.14c0,166.61 136.29,302.89 302.9,302.89l2171.47 0c166.61,0 302.89,-136.28 302.89,-302.89l0 -2171.48c0,-166.6 -136.28,-302.89 -302.89,-302.89l-2171.47 0c-166.61,0 -302.9,136.29 -302.9,302.89l0 2171.48zm2383.32 195.42l-2053.79 0c-157.59,0 -286.48,-128.88 -286.48,-286.47l0 -2053.79c0,-157.59 128.89,-286.5 286.48,-286.5l2053.79 0c157.59,0 286.49,128.91 286.49,286.5l0 2053.79c0,157.59 -128.9,286.47 -286.49,286.47z"/>
   <path class="fil4" d="M6120.43 3416.09c0,60.49 18.98,116.74 51.3,163.09l0 -2159.48c0,-160.93 131.65,-292.56 292.6,-292.56l2097.71 0c25.93,0 51.09,3.41 75.09,9.82 -48.73,-38.27 -110.02,-61.16 -176.43,-61.16l-2053.79 0c-157.59,0 -286.48,128.91 -286.48,286.5l0 2053.79z"/>
  </g>
  <g id="_1749141858608">
   <path class="fil29" d="M3576.55 6637.08c723.49,0 1446.97,-0.48 2170.44,-0.04 147.81,0.1 267.61,82.07 308.37,226.25 7.22,26.9 9.92,50.7 10.31,78.48l0 2184.45c0,167.58 -137.08,304.66 -304.67,304.66l-2184.45 0c-167.59,0 -304.68,-137.08 -304.68,-304.66l0 -2184.45c0,-167.59 137.09,-304.69 304.68,-304.69z"/>
   <path class="fil30" d="M3583.04 9422.62c-166.61,0 -302.89,-136.28 -302.89,-302.89l0 -2171.47c0,-166.61 136.28,-302.9 302.89,-302.9l2171.47 0c166.61,0 302.9,136.29 302.9,302.9l0 2171.47c0,166.61 -136.29,302.89 -302.9,302.89l-2171.47 0zm2184.42 -2793.78l-2197.37 0c-168.58,0 -306.48,137.89 -306.48,306.47l0 2197.36c0,168.58 137.9,306.49 306.48,306.49l2197.37 0c168.58,0 306.47,-137.91 306.47,-306.49l0 -2197.36c0,-168.58 -137.89,-306.47 -306.47,-306.47z"/>
   <path class="fil3" d="M3280.15 9119.73c0,166.61 136.28,302.89 302.89,302.89l2171.47 0c166.61,0 302.9,-136.28 302.9,-302.89l0 -2171.47c0,-166.61 -136.29,-302.9 -302.9,-302.9l-2171.47 0c-166.61,0 -302.89,136.29 -302.89,302.9l0 2171.47zm2383.32 195.43l-2053.8 0c-157.59,0 -286.47,-128.89 -286.47,-286.48l0 -2053.79c0,-157.59 128.88,-286.49 286.47,-286.49l2053.8 0c157.58,0 286.49,128.9 286.49,286.49l0 2053.79c0,157.59 -128.91,286.48 -286.49,286.48z"/>
   <path class="fil4" d="M3323.2 9028.68c0,60.49 18.98,116.74 51.29,163.1l0 -2159.49c0,-160.92 131.66,-292.56 292.61,-292.56l2097.7 0c25.93,0 51.1,3.41 75.1,9.82 -48.74,-38.27 -110.03,-61.15 -176.43,-61.15l-2053.8 0c-157.59,0 -286.47,128.9 -286.47,286.49l0 2053.79z"/>
  </g>
  <g id="_1749141853856">
   <path class="fil29" d="M11995.32 6637.08c723.48,0 1446.97,-0.48 2170.43,-0.04 147.81,0.1 267.61,82.07 308.38,226.25 7.22,26.9 9.91,50.7 10.3,78.48l0 2184.45c0,167.58 -137.07,304.66 -304.66,304.66l-2184.45 0c-167.59,0 -304.69,-137.08 -304.69,-304.66l0 -2184.45c0,-167.59 137.1,-304.69 304.69,-304.69z"/>
   <path class="fil30" d="M12001.81 9422.62c-166.61,0 -302.9,-136.28 -302.9,-302.89l0 -2171.47c0,-166.61 136.29,-302.9 302.9,-302.9l2171.47 0c166.61,0 302.89,136.29 302.89,302.9l0 2171.47c0,166.61 -136.28,302.89 -302.89,302.89l-2171.47 0zm2184.41 -2793.78l-2197.36 0c-168.58,0 -306.49,137.89 -306.49,306.47l0 2197.36c0,168.58 137.91,306.49 306.49,306.49l2197.36 0c168.58,0 306.47,-137.91 306.47,-306.49l0 -2197.36c0,-168.58 -137.89,-306.47 -306.47,-306.47z"/>
   <path class="fil3" d="M11698.91 9119.73c0,166.61 136.29,302.89 302.9,302.89l2171.47 0c166.61,0 302.89,-136.28 302.89,-302.89l0 -2171.47c0,-166.61 -136.28,-302.9 -302.89,-302.9l-2171.47 0c-166.61,0 -302.9,136.29 -302.9,302.9l0 2171.47zm2383.32 195.43l-2053.79 0c-157.59,0 -286.47,-128.89 -286.47,-286.48l0 -2053.79c0,-157.59 128.88,-286.49 286.47,-286.49l2053.79 0c157.59,0 286.5,128.9 286.5,286.49l0 2053.79c0,157.59 -128.91,286.48 -286.5,286.48z"/>
   <path class="fil4" d="M11741.97 9028.68c0,60.49 18.97,116.74 51.29,163.1l0 -2159.49c0,-160.92 131.66,-292.56 292.6,-292.56l2097.71 0c25.93,0 51.1,3.41 75.09,9.82 -48.73,-38.27 -110.02,-61.15 -176.43,-61.15l-2053.79 0c-157.59,0 -286.47,128.9 -286.47,286.49l0 2053.79z"/>
  </g>
  <g id="_1749141849008">
   <path class="fil31" d="M6380.78 3826.76c723.48,0 1446.97,-0.48 2170.43,-0.04 147.81,0.1 267.61,82.07 308.37,226.25 7.22,26.9 9.92,50.7 10.31,78.48l0 2184.45c0,167.59 -137.08,304.66 -304.66,304.66l-2184.45 0c-167.59,0 -304.69,-137.07 -304.69,-304.66l0 -2184.45c0,-167.59 137.1,-304.69 304.69,-304.69z"/>
   <path class="fil32" d="M6387.27 6612.3c-166.61,0 -302.9,-136.28 -302.9,-302.89l0 -2171.47c0,-166.61 136.29,-302.9 302.9,-302.9l2171.47 0c166.61,0 302.89,136.29 302.89,302.9l0 2171.47c0,166.61 -136.28,302.89 -302.89,302.89l-2171.47 0zm2184.41 -2793.78l-2197.36 0c-168.58,0 -306.49,137.89 -306.49,306.47l0 2197.36c0,168.58 137.91,306.49 306.49,306.49l2197.36 0c168.58,0 306.47,-137.91 306.47,-306.49l0 -2197.36c0,-168.58 -137.89,-306.47 -306.47,-306.47z"/>
   <path class="fil3" d="M6084.37 6309.41c0,166.61 136.29,302.89 302.9,302.89l2171.47 0c166.61,0 302.89,-136.28 302.89,-302.89l0 -2171.47c0,-166.61 -136.28,-302.9 -302.89,-302.9l-2171.47 0c-166.61,0 -302.9,136.29 -302.9,302.9l0 2171.47zm2383.32 195.43l-2053.79 0c-157.59,0 -286.48,-128.89 -286.48,-286.48l0 -2053.79c0,-157.59 128.89,-286.49 286.48,-286.49l2053.79 0c157.59,0 286.49,128.9 286.49,286.49l0 2053.79c0,157.59 -128.9,286.48 -286.49,286.48z"/>
   <path class="fil4" d="M6127.42 6218.36c0,60.49 18.98,116.74 51.3,163.1l0 -2159.49c0,-160.92 131.65,-292.56 292.6,-292.56l2097.71 0c25.93,0 51.09,3.41 75.09,9.82 -48.73,-38.27 -110.02,-61.15 -176.43,-61.15l-2053.79 0c-157.59,0 -286.48,128.9 -286.48,286.49l0 2053.79z"/>
  </g>
  <g id="_1749141843152">
   <path class="fil15" d="M9178.01 1024.49c723.49,0 1446.97,-0.49 2170.44,-0.04 147.81,0.1 267.61,82.07 308.37,226.25 7.22,26.9 9.92,50.7 10.31,78.48l0 2184.44c0,167.59 -137.08,304.67 -304.67,304.67l-2184.45 0c-167.59,0 -304.68,-137.08 -304.68,-304.67l0 -2184.44c0,-167.59 137.09,-304.69 304.68,-304.69z"/>
   <path class="fil16" d="M9184.5 3810.03c-166.61,0 -302.89,-136.28 -302.89,-302.89l0 -2171.48c0,-166.6 136.28,-302.89 302.89,-302.89l2171.47 0c166.61,0 302.9,136.29 302.9,302.89l0 2171.48c0,166.61 -136.29,302.89 -302.9,302.89l-2171.47 0zm2184.42 -2793.78l-2197.37 0c-168.58,0 -306.48,137.89 -306.48,306.47l0 2197.36c0,168.58 137.9,306.49 306.48,306.49l2197.37 0c168.58,0 306.46,-137.91 306.46,-306.49l0 -2197.36c0,-168.58 -137.88,-306.47 -306.46,-306.47z"/>
   <path class="fil3" d="M8881.61 3507.14c0,166.61 136.28,302.89 302.89,302.89l2171.47 0c166.61,0 302.9,-136.28 302.9,-302.89l0 -2171.48c0,-166.6 -136.29,-302.89 -302.9,-302.89l-2171.47 0c-166.61,0 -302.89,136.29 -302.89,302.89l0 2171.48zm2383.32 195.42l-2053.8 0c-157.59,0 -286.47,-128.88 -286.47,-286.47l0 -2053.79c0,-157.59 128.88,-286.5 286.47,-286.5l2053.8 0c157.58,0 286.49,128.91 286.49,286.5l0 2053.79c0,157.59 -128.91,286.47 -286.49,286.47z"/>
   <path class="fil4" d="M8924.66 3416.09c0,60.49 18.98,116.74 51.29,163.09l0 -2159.48c0,-160.93 131.66,-292.56 292.61,-292.56l2097.7 0c25.93,0 51.1,3.41 75.1,9.82 -48.74,-38.27 -110.03,-61.16 -176.43,-61.16l-2053.8 0c-157.59,0 -286.47,128.91 -286.47,286.5l0 2053.79z"/>
  </g>
  <g id="_1749141838256">
   <path class="fil29" d="M6380.78 6637.08c723.48,0 1446.97,-0.48 2170.43,-0.04 147.81,0.1 267.61,82.07 308.37,226.25 7.22,26.9 9.92,50.7 10.31,78.48l0 2184.45c0,167.58 -137.08,304.66 -304.66,304.66l-2184.45 0c-167.59,0 -304.69,-137.08 -304.69,-304.66l0 -2184.45c0,-167.59 137.1,-304.69 304.69,-304.69z"/>
   <path class="fil30" d="M6387.27 9422.62c-166.61,0 -302.9,-136.28 -302.9,-302.89l0 -2171.47c0,-166.61 136.29,-302.9 302.9,-302.9l2171.47 0c166.61,0 302.89,136.29 302.89,302.9l0 2171.47c0,166.61 -136.28,302.89 -302.89,302.89l-2171.47 0zm2184.41 -2793.78l-2197.36 0c-168.58,0 -306.49,137.89 -306.49,306.47l0 2197.36c0,168.58 137.91,306.49 306.49,306.49l2197.36 0c168.58,0 306.47,-137.91 306.47,-306.49l0 -2197.36c0,-168.58 -137.89,-306.47 -306.47,-306.47z"/>
   <path class="fil3" d="M6084.37 9119.73c0,166.61 136.29,302.89 302.9,302.89l2171.47 0c166.61,0 302.89,-136.28 302.89,-302.89l0 -2171.47c0,-166.61 -136.28,-302.9 -302.89,-302.9l-2171.47 0c-166.61,0 -302.9,136.29 -302.9,302.9l0 2171.47zm2383.32 195.43l-2053.79 0c-157.59,0 -286.48,-128.89 -286.48,-286.48l0 -2053.79c0,-157.59 128.89,-286.49 286.48,-286.49l2053.79 0c157.59,0 286.49,128.9 286.49,286.49l0 2053.79c0,157.59 -128.9,286.48 -286.49,286.48z"/>
   <path class="fil4" d="M6127.42 9028.68c0,60.49 18.98,116.74 51.3,163.1l0 -2159.49c0,-160.92 131.65,-292.56 292.6,-292.56l2097.71 0c25.93,0 51.09,3.41 75.09,9.82 -48.73,-38.27 -110.02,-61.15 -176.43,-61.15l-2053.79 0c-157.59,0 -286.48,128.9 -286.48,286.49l0 2053.79z"/>
  </g>
  <g id="_1749141837632">
   <path class="fil31" d="M9185 3826.76c723.49,0 1446.97,-0.48 2170.44,-0.04 147.81,0.1 267.61,82.07 308.37,226.25 7.22,26.9 9.92,50.7 10.31,78.48l0 2184.45c0,167.59 -137.08,304.66 -304.67,304.66l-2184.45 0c-167.59,0 -304.68,-137.07 -304.68,-304.66l0 -2184.45c0,-167.59 137.09,-304.69 304.68,-304.69z"/>
   <path class="fil32" d="M9191.49 6612.3c-166.61,0 -302.89,-136.28 -302.89,-302.89l0 -2171.47c0,-166.61 136.28,-302.9 302.89,-302.9l2171.47 0c166.61,0 302.9,136.29 302.9,302.9l0 2171.47c0,166.61 -136.29,302.89 -302.9,302.89l-2171.47 0zm2184.42 -2793.78l-2197.37 0c-168.58,0 -306.48,137.89 -306.48,306.47l0 2197.36c0,168.58 137.9,306.49 306.48,306.49l2197.37 0c168.58,0 306.46,-137.91 306.46,-306.49l0 -2197.36c0,-168.58 -137.88,-306.47 -306.46,-306.47z"/>
   <path class="fil3" d="M8888.6 6309.41c0,166.61 136.28,302.89 302.89,302.89l2171.47 0c166.61,0 302.9,-136.28 302.9,-302.89l0 -2171.47c0,-166.61 -136.29,-302.9 -302.9,-302.9l-2171.47 0c-166.61,0 -302.89,136.29 -302.89,302.9l0 2171.47zm2383.32 195.43l-2053.8 0c-157.59,0 -286.47,-128.89 -286.47,-286.48l0 -2053.79c0,-157.59 128.88,-286.49 286.47,-286.49l2053.8 0c157.58,0 286.49,128.9 286.49,286.49l0 2053.79c0,157.59 -128.91,286.48 -286.49,286.48z"/>
   <path class="fil4" d="M8931.65 6218.36c0,60.49 18.98,116.74 51.29,163.1l0 -2159.49c0,-160.92 131.66,-292.56 292.61,-292.56l2097.7 0c25.93,0 51.1,3.41 75.1,9.82 -48.74,-38.27 -110.03,-61.15 -176.43,-61.15l-2053.8 0c-157.59,0 -286.47,128.9 -286.47,286.49l0 2053.79z"/>
  </g>
  <g id="_1749141833504">
   <path class="fil29" d="M9185 6637.08c723.49,0 1446.97,-0.48 2170.44,-0.04 147.81,0.1 267.61,82.07 308.37,226.25 7.22,26.9 9.92,50.7 10.31,78.48l0 2184.45c0,167.58 -137.08,304.66 -304.67,304.66l-2184.45 0c-167.59,0 -304.68,-137.08 -304.68,-304.66l0 -2184.45c0,-167.59 137.09,-304.69 304.68,-304.69z"/>
   <path class="fil30" d="M9191.49 9422.62c-166.61,0 -302.89,-136.28 -302.89,-302.89l0 -2171.47c0,-166.61 136.28,-302.9 302.89,-302.9l2171.47 0c166.61,0 302.9,136.29 302.9,302.9l0 2171.47c0,166.61 -136.29,302.89 -302.9,302.89l-2171.47 0zm2184.42 -2793.78l-2197.37 0c-168.58,0 -306.48,137.89 -306.48,306.47l0 2197.36c0,168.58 137.9,306.49 306.48,306.49l2197.37 0c168.58,0 306.46,-137.91 306.46,-306.49l0 -2197.36c0,-168.58 -137.88,-306.47 -306.46,-306.47z"/>
   <path class="fil3" d="M8888.6 9119.73c0,166.61 136.28,302.89 302.89,302.89l2171.47 0c166.61,0 302.9,-136.28 302.9,-302.89l0 -2171.47c0,-166.61 -136.29,-302.9 -302.9,-302.9l-2171.47 0c-166.61,0 -302.89,136.29 -302.89,302.9l0 2171.47zm2383.32 195.43l-2053.8 0c-157.59,0 -286.47,-128.89 -286.47,-286.48l0 -2053.79c0,-157.59 128.88,-286.49 286.47,-286.49l2053.8 0c157.58,0 286.49,128.9 286.49,286.49l0 2053.79c0,157.59 -128.91,286.48 -286.49,286.48z"/>
   <path class="fil4" d="M8931.65 9028.68c0,60.49 18.98,116.74 51.29,163.1l0 -2159.49c0,-160.92 131.66,-292.56 292.61,-292.56l2097.7 0c25.93,0 51.1,3.41 75.1,9.82 -48.74,-38.27 -110.03,-61.15 -176.43,-61.15l-2053.8 0c-157.59,0 -286.47,128.9 -286.47,286.49l0 2053.79z"/>
  </g>
  <g id="_1749141832928">
   <path class="fil31" d="M11989.23 3826.76c723.48,0 1446.97,-0.48 2170.43,-0.04 147.81,0.1 267.61,82.07 308.37,226.25 7.22,26.9 9.92,50.7 10.31,78.48l0 2184.45c0,167.59 -137.08,304.66 -304.67,304.66l-2184.44 0c-167.59,0 -304.69,-137.07 -304.69,-304.66l0 -2184.45c0,-167.59 137.1,-304.69 304.69,-304.69z"/>
   <path class="fil32" d="M11995.71 6612.3c-166.6,0 -302.89,-136.28 -302.89,-302.89l0 -2171.47c0,-166.61 136.29,-302.9 302.89,-302.9l2171.48 0c166.61,0 302.89,136.29 302.89,302.9l0 2171.47c0,166.61 -136.28,302.89 -302.89,302.89l-2171.48 0zm2184.42 -2793.78l-2197.36 0c-168.58,0 -306.49,137.89 -306.49,306.47l0 2197.36c0,168.58 137.91,306.49 306.49,306.49l2197.36 0c168.58,0 306.47,-137.91 306.47,-306.49l0 -2197.36c0,-168.58 -137.89,-306.47 -306.47,-306.47z"/>
   <path class="fil3" d="M11692.82 6309.41c0,166.61 136.29,302.89 302.89,302.89l2171.48 0c166.61,0 302.89,-136.28 302.89,-302.89l0 -2171.47c0,-166.61 -136.28,-302.9 -302.89,-302.9l-2171.48 0c-166.6,0 -302.89,136.29 -302.89,302.9l0 2171.47zm2383.32 195.43l-2053.79 0c-157.59,0 -286.48,-128.89 -286.48,-286.48l0 -2053.79c0,-157.59 128.89,-286.49 286.48,-286.49l2053.79 0c157.59,0 286.49,128.9 286.49,286.49l0 2053.79c0,157.59 -128.9,286.48 -286.49,286.48z"/>
   <path class="fil4" d="M11735.87 6218.36c0,60.49 18.98,116.74 51.3,163.1l0 -2159.49c0,-160.92 131.65,-292.56 292.6,-292.56l2097.71 0c25.93,0 51.09,3.41 75.09,9.82 -48.73,-38.27 -110.02,-61.15 -176.43,-61.15l-2053.79 0c-157.59,0 -286.48,128.9 -286.48,286.49l0 2053.79z"/>
  </g>
  <polygon class="fil33" points="19915.59,8456.64 20032.61,8197.04 19749.41,8023.93 19588.21,8285.3 "/>
  <g id="_1749142869408">
   <path class="fil11" d="M19166.58 8467c-12.86,-0.54 -51.44,-17.72 -66.1,-24.76 -33.51,-16.06 -64.04,-38.24 -89.03,-69.19 -20.52,-25.42 -31.53,-50.59 -38.15,-79.11 -4.57,-19.71 -6.25,-31.8 -1.95,-41.41 -39.43,47.53 -41.11,89.73 -16.32,146.75l11.53 22.2c37.33,61.35 108.42,99.74 176.05,125.82l39.66 13.95c23.29,7.36 73.67,21.31 98.45,25.95l182.38 30.28c49.35,8.2 135.28,24.56 176.57,53.12l52.02 37.79c58.59,38.79 174.17,76.89 237.56,62.64 23.4,-5.24 26.65,-10.1 35.84,-26.86 41.61,-75.95 10.85,-99.4 29.42,-170.28 -2.12,4.32 -6.33,7.9 -15.43,12.63 -21.75,11.29 -56.51,6.86 -75.17,3.87 -53.3,-8.54 -42.97,-19.37 -105.69,-16.52 -12.91,0.57 -24.11,0.9 -37.41,1.45 -3.51,0.17 -5.27,0.47 -8.7,0.5 -24.59,0.39 -38.72,-3.79 -62.77,-8.28 -48.86,-9.06 -76.08,-21.4 -120.04,-29.61 -40.87,-7.63 -83.35,-10.19 -124.74,-14.72 -14.24,-1.56 -62.2,-5.2 -71.39,-8.07 -32.52,-10.13 -52.78,-66.74 -89.9,-66.4 -31.36,0.28 -77.91,19.84 -116.69,18.26z"/>
   <path class="fil34" d="M19001.99 8227.65c-17.22,8.95 -26.59,15.81 -30.64,24.88 -4.3,9.61 -2.62,21.7 1.95,41.41 6.62,28.52 17.63,53.69 38.15,79.11 24.99,30.95 55.52,53.13 89.03,69.19 14.66,7.04 53.24,24.22 66.1,24.76 38.78,1.58 85.33,-17.98 116.69,-18.26 37.12,-0.34 57.38,56.27 89.9,66.4 9.19,2.87 57.15,6.51 71.39,8.07 41.39,4.53 83.87,7.09 124.74,14.72 43.96,8.21 71.18,20.55 120.04,29.61 24.05,4.49 38.18,8.67 62.77,8.28 3.43,-0.03 5.19,-0.33 8.7,-0.5 13.3,-0.55 24.5,-0.88 37.41,-1.45 62.72,-2.85 52.39,7.98 105.69,16.52 18.66,2.99 53.42,7.42 75.17,-3.87 9.1,-4.73 13.31,-8.31 15.44,-12.58 2.4,-4.85 2.12,-10.61 3.12,-19.96 3.56,-32.63 9.82,-101.91 18.19,-130.75 7.95,-27.47 18.61,-75.45 5.53,-100.62l-0.4 -0.76c-8.58,-16.27 -30.99,-52.07 -50,-42.2 -32.62,16.93 -44.96,36.63 -84.79,43.27 -15.03,2.51 -25.35,2.91 -39.02,1.99 -58.63,-3.93 -93.62,-17.43 -129.89,-65.89l-24.24 -40.29c65.65,-34.09 42.16,-140.19 -42.69,-98.79 -17.55,8.59 -53.86,21.81 -75.69,31.28 -9.66,-14.79 -16.6,-26.2 -38.55,-15.32 -12.03,5.97 -15,25.05 -17.9,36.76 -4.13,1.54 -8.01,2.68 -11.93,3.96 -11.18,-10.66 -25.97,-19.75 -43.55,-9.56 -6.78,3.93 -8.15,18.51 -9.05,27.52l-7.39 2.23c-34.65,-26.95 -51.71,-7.58 -59.3,16.67 -3.75,0.8 -7.43,1.36 -11.43,2.58 -16.48,-7.83 -48.33,-21.36 -51.39,11.28 -4.54,0.98 -9.09,1.35 -13.85,2.28 -7.38,-6.86 -21.35,-14.26 -29.27,-13.28 -2.82,0.34 -19.46,4.83 -23.92,19.55l-9.12 0.72c-3.11,0.22 -5.38,0.15 -7.58,0.16 -18.62,-22.12 -33.91,-27.91 -54.36,-2.98 -4.81,-0.67 -9.6,-1.54 -14.43,-2.96 -51.1,-14.89 -117.7,-30.15 -169.63,-3.18zm230.83 65.92c-25.99,13.5 -33.24,-35.27 -36.06,-54.73 -2.53,-17.44 34.72,-16.34 36.37,2.02 1.26,13.88 13.74,45.42 -0.31,52.71zm71.12 -4.54c-27.71,14.39 -29.79,-16.73 -33.07,-30.35 -1.44,-5.97 -2.56,-14.16 -4.48,-20.27 -4.1,-13.25 30.27,-18.6 34.99,-2.56 3.34,11.21 14.89,46.79 2.56,53.18zm73.47 -22.25c-1.55,16.23 -23.69,22.44 -32.57,5.35 -6.52,-12.56 -5.9,-28.86 -11.82,-43.15 -6.51,-15.93 31.63,-19.1 35.6,-3.86 3.17,12.46 9.26,36.66 8.79,41.66zm56.49 -2.04c-22.83,11.84 -28.4,-31.78 -33.29,-49.75 -5.75,-20.88 27.5,-30.06 33.97,-9.93 2.93,9.18 5.11,21.87 7.33,30.93 3.03,12.42 4.85,22.07 -8.01,28.75zm43.3 -28.96c-7.96,-15.32 -7.72,-29.71 -11.34,-41.43 -8.1,-26.07 29.27,-33.23 36.35,0.99 1.37,6.64 2.48,13.54 4.03,19.76 9.21,37.02 -21.81,34.62 -29.04,20.68zm63.98 -22.43c-7.37,-14.16 -9.47,-26.9 -12.73,-45.24 -1.39,-17.13 27.45,-37.37 37.55,-12.66 0.43,13.66 8.03,38.89 7.79,51.17 -0.31,16.85 -23.33,24.66 -32.61,6.73z"/>
   <path class="fil4" d="M19196.76 8238.84c2.82,19.46 10.07,68.23 36.06,54.73 14.05,-7.29 1.57,-38.83 0.31,-52.71 -1.65,-18.36 -38.9,-19.46 -36.37,-2.02z"/>
   <path class="fil4" d="M19270.87 8258.68c3.28,13.62 5.36,44.74 33.07,30.35 12.33,-6.39 0.78,-41.97 -2.56,-53.18 -4.72,-16.04 -39.09,-10.69 -34.99,2.56 1.92,6.11 3.04,14.3 4.48,20.27z"/>
   <path class="fil4" d="M19333.02 8228.98c5.92,14.29 5.3,30.59 11.82,43.15 8.88,17.09 31.02,10.88 32.57,-5.35 0.47,-5 -5.62,-29.2 -8.79,-41.66 -3.97,-15.24 -42.11,-12.07 -35.6,3.86z"/>
   <path class="fil4" d="M19400.61 8214.99c4.89,17.97 10.46,61.59 33.29,49.75 12.86,-6.68 11.04,-16.33 8.01,-28.75 -2.22,-9.06 -4.4,-21.75 -7.33,-30.93 -6.47,-20.13 -39.72,-10.95 -33.97,9.93z"/>
   <path class="fil4" d="M19465.86 8194.35c3.62,11.72 3.38,26.11 11.34,41.43 7.23,13.94 38.25,16.34 29.04,-20.68 -1.55,-6.22 -2.66,-13.12 -4.03,-19.76 -7.08,-34.22 -44.45,-27.06 -36.35,-0.99z"/>
   <path class="fil4" d="M19528.45 8168.11c3.26,18.34 5.36,31.08 12.73,45.24 9.28,17.93 32.3,10.12 32.61,-6.73 0.24,-12.28 -7.36,-37.51 -7.79,-51.17 -10.1,-24.71 -38.94,-4.47 -37.55,12.66z"/>
  </g>
  <path class="fil18" d="M19630.49 7962.68c-2.05,-34.69 80.13,-205.53 101.77,-269.02 40.52,-118.85 80.16,-235.5 116.91,-349.67 208.35,-688.96 1331.69,-471.1 2057.57,-504.28l-15.79 639.02c-445.72,0.45 -688.3,-8.83 -1059.71,0 -490.97,-47.22 -465.04,164.24 -563.39,453.4 -51.8,152.22 -90.16,172.52 -156.71,280.15 -50.24,11.61 -474.99,-153.71 -480.65,-249.6z"/>
  <path class="fil35" d="M20694.02 7478.73l1196.93 0 0.11 -588.92c0,-23.84 -13.59,-44.58 -43.32,-44.58l-1155.24 0 1.52 633.5zm-209.48 877.18l-2.5 352.54c166.25,29.67 292.47,174.98 292.47,349.76 0,196.19 -159.08,355.27 -355.3,355.27 -196.19,0 -355.27,-159.08 -355.27,-355.27 0,-175.13 126.71,-320.66 293.45,-349.93l1.26 -352.37c-311.07,14.63 -89.64,612.42 -552.59,513.13l-860.13 -269.61 35.55 -120.07 620.72 203.63c114.49,-319.44 174.72,-552.02 221.54,-712.09 64.07,-218.91 103.15,-493.74 221.91,-478.18l505.5 0 0.11 -647.49 -72.55 -34.22 0.95 -86.62 1410.42 0 0 -450.34 0 -0.69c9.77,-214.72 68.04,-334.05 334.37,-389.33 1.46,0.38 2.93,0.82 4.41,1.29 92.6,29.66 130.63,162.09 34.62,208.9 -233.48,-49.59 -201.63,200.64 -204.6,317.88 -5.05,200.42 -7.03,496.66 -7.36,697.2l4.93 1246.61 -1571.91 0zm1406.36 -115.55l0.05 -624.18 -1409.46 9.35 1.42 614.83 1407.99 0zm-1836.12 -614.83l-344.43 1088.27c560.84,175.96 132.79,-407.55 646.72,-473.44l0 -614.83 -302.29 0z"/>
  <path class="fil36" d="M20182.94 9062.62c0,-134.08 108.7,-242.78 242.77,-242.78 134.08,0 242.78,108.7 242.78,242.78 0,134.07 -108.7,242.77 -242.78,242.77 -134.07,0 -242.77,-108.7 -242.77,-242.77z"/>
  <path class="fil36" d="M22263.48 6094.21c168.31,8.87 352.62,23.1 524.5,21.34 24.88,1.3 55.12,-68.53 55.12,-102.77 0,-34.26 -31.98,-75.64 -62.23,-106.35 -184.3,-16 -381,-22.4 -556.42,-22.4 95.42,43.39 129.37,146.5 39.03,210.18z"/>
  <g id="_1749142861824">
   <circle class="fil36" cx="21985.82" cy="8198.55" r="217.74"/>
   <path class="fil35" d="M22880.72 8300.92c25.75,-223.48 -33.28,-439 -152.73,-612.65l-536.35 384.49c21.8,35.6 34.47,76.94 35.39,120.37l653.69 107.79zm-725.46 -102.37c0,-93.58 -75.86,-169.43 -169.43,-169.43 -93.58,0 -169.43,75.85 -169.43,169.43 0,93.57 75.85,169.43 169.43,169.43 93.57,0 169.43,-75.86 169.43,-169.43zm-10.36 -181.37l539.66 -386.86c-64.52,-79.39 -142.61,-148.02 -231.48,-201.98 -49.99,-30.36 -103.41,-56.08 -159.74,-76.48 -40.34,-14.6 -82.19,-26.48 -125.36,-35.36l-14.45 87.58 -63.7 386.29 -29.47 178.73c31.84,10.31 60.41,26.88 84.54,48.08zm-261.59 -37.01c32.35,-15.21 68.31,-23.39 105.62,-22.86l27.44 -166.39 63.9 -387.53 16.27 -98.66c-9.92,-1.24 -19.83,-2.3 -29.72,-3.2 -153.98,-14.07 -303.63,11.91 -437.81,69.95 -14.3,6.19 -28.42,12.73 -42.36,19.63 -30.72,15.22 -60.51,32.16 -89.26,50.72l251.96 351.48 133.96 186.86zm-124.17 135.78c13.54,-37.28 35.79,-69.77 63.97,-95.49l-162.22 -226.3 -222.68 -310.62c-107.95,82.63 -197.45,189.63 -259.39,314.51 -32.46,65.43 -57.35,135.78 -73.36,210.1l653.68 107.8zm1110.42 256.51l-651.81 -107.5c-11.07,38.84 -31.37,73.11 -58.04,100.79l385.92 538.34c162.42,-128.77 281.16,-313.7 323.93,-531.63zm-382.45 574.27l-384.88 -536.91c-35.79,19.73 -76.76,30.56 -119.49,29.96l-107.62 652.59c222.61,27.72 437.73,-28.85 611.99,-145.64zm-575.81 -518.72c-44.28,-14.31 -82.22,-40.78 -110.69,-74.93l-536.32 384.47c127.66,170.95 315.89,297.03 539.39,343.05l107.62 -652.59zm-148.31 -137.05c-13.37,-32.16 -19.92,-67.52 -18.13,-103.98l-651.8 -107.5c-28.97,216.29 21.81,425.91 130.29,598.33l539.64 -386.85zm561.06 -1026.25c44.21,16.01 86.96,35.08 127.99,56.93 313.39,166.98 526.72,497.03 526.72,876.92 0,548.38 -444.55,992.93 -992.93,992.93 -548.39,0 -992.94,-444.55 -992.94,-992.93 0,-142.33 29.94,-277.68 83.88,-400.07 73.27,-166.26 190.82,-308.6 337.7,-412.12 7.18,-5.05 14.42,-10.02 21.73,-14.89 157.37,-104.8 346.38,-165.86 549.63,-165.86 27.27,0 54.28,1.1 80.99,3.26 89.63,7.23 175.91,26.37 257.23,55.83z"/>
   <path class="fil36" d="M22449.64 7075.56c511,210.54 828.51,752.01 734.73,1320.65 -62.9,381.35 -297.05,691.74 -610.82,865.48 -230.86,127.83 -504.82,181.68 -785.39,135.41 -162.96,-26.88 -312.96,-85.02 -444.87,-167.29 -309.68,-193.12 -519.71,-519.17 -563.77,-885.67 -4.61,-38.25 -7.4,-76.93 -8.3,-115.96 -1.74,-74.78 3.43,-150.78 16.05,-227.29 3.81,-23.07 8.23,-45.88 13.26,-68.41 47.21,-211.12 147.62,-398.18 284.59,-549.21 3.58,-3.96 7.2,-7.89 10.83,-11.79 242.9,-260.85 596.27,-410.53 970.86,-385.06 38.69,2.63 77.62,7.14 116.67,13.58 58.64,9.67 115.6,23.39 170.65,40.83 32.52,10.29 64.37,21.89 95.51,34.73zm529.12 1123c0,-379.89 -213.33,-709.94 -526.72,-876.92 -41.03,-21.85 -83.78,-40.92 -127.99,-56.93 -81.32,-29.46 -167.6,-48.6 -257.23,-55.83 -26.71,-2.16 -53.72,-3.26 -80.99,-3.26 -203.25,0 -392.26,61.06 -549.63,165.86 -7.31,4.87 -14.55,9.84 -21.73,14.89 -146.88,103.52 -264.43,245.86 -337.7,412.12 -53.94,122.39 -83.88,257.74 -83.88,400.07 0,548.38 444.55,992.93 992.94,992.93 548.38,0 992.93,-444.55 992.93,-992.93z"/>
  </g>
  <path class="fil36" d="M21890.08 6724.39l-1060.54 0 -349.88 0 1.1 -135.99 0.29 -34.25 10.12 -16.52 399.57 -4.47 50.16 -0.57 54.66 55.81 760.49 0c73.71,0 134.04,60.31 134.04,134.04 0,0.57 0,1.21 -0.01,1.95z"/>
  <polygon class="fil36" points="20693.15,7120.65 21890.08,7120.65 21890.95,7426.28 21890.95,7478.73 20694.02,7478.73 20694.02,7419.04 "/>
  <circle class="fil35" cx="20425.71" cy="9062.62" r="78.05"/>
  <path class="fil17" d="M12176.19 5205.96c0,-226.66 38.27,-406.04 114.73,-538.17 76.48,-132.09 180.1,-223.85 310.78,-275.32 34.79,-13.91 73.02,-24.66 114.73,-32.34 41.7,-7.63 84.48,-13.53 128.28,-17.73 43.79,-4.15 87.26,-6.95 130.37,-8.31 43.11,-1.41 83.41,-2.11 120.96,-2.11 36.16,0 74.41,0.7 114.73,2.11 40.34,1.36 81.34,4.49 123.08,9.37 41.71,4.86 82.38,11.11 122.02,18.78 39.61,7.64 75.44,17.71 107.42,30.23 65.35,26.43 124.11,62.22 176.24,107.42 52.15,45.19 96.65,101.16 133.49,167.9 36.86,66.78 65.02,145 84.49,234.65 19.46,89.7 29.19,190.88 29.19,303.52 0,166.87 -20.84,308.35 -62.58,424.46 -41.71,116.1 -100.11,209.98 -175.2,281.57 -75.09,71.62 -165.14,123.44 -270.11,155.42 -105.01,31.97 -221.46,47.96 -349.39,47.96l-95.96 0c-126.52,0 -242.64,-15.99 -348.31,-47.96 -105.69,-31.98 -196.09,-83.8 -271.17,-155.42 -75.09,-71.59 -133.49,-165.47 -175.22,-281.57 -41.7,-116.11 -62.57,-257.59 -62.57,-424.46zm905.26 -408.83c-43.11,0 -84.82,9.04 -125.14,27.1 -40.33,18.08 -76.14,43.81 -107.44,77.18 -31.28,33.39 -56.31,74.06 -75.1,122.03 -18.76,48 -28.15,101.87 -28.15,161.65 0,118.21 26.79,210.33 80.31,276.38 53.53,66.03 138.7,99.07 255.52,99.07 118.21,0 204.06,-33.04 257.6,-99.07 53.53,-66.05 80.3,-158.17 80.3,-276.38 0,-59.78 -9.37,-113.65 -28.15,-161.65 -18.77,-47.97 -43.8,-88.64 -75.1,-122.03 -31.27,-33.37 -67.1,-59.1 -107.4,-77.18 -40.32,-18.06 -82.75,-27.1 -127.25,-27.1z"/>
  <path class="fil17" d="M10642.82 6057.89c-62.58,19.44 -126.2,33.72 -190.86,42.76 -64.67,9.04 -126.55,13.55 -185.65,13.55 -59.08,0 -114.36,-4.88 -165.83,-14.61 -51.44,-9.74 -95.92,-25.03 -133.47,-45.88 -12.52,-20.86 -19.11,-42.41 -19.84,-64.67 -0.68,-22.24 -1.03,-47.95 -1.03,-77.18 0,-75.1 3.12,-143.57 9.39,-205.43 6.25,-61.89 13.55,-122.03 21.91,-180.43 8.33,-58.42 15.64,-117.87 21.88,-178.34 6.27,-60.49 9.4,-127.6 9.4,-201.29 0,-20.85 -0.69,-41.04 -2.09,-60.51 -1.39,-19.44 -6.6,-37.19 -15.64,-53.18 -9.02,-15.99 -22.94,-28.51 -41.73,-37.55 -18.76,-9.04 -45.51,-13.55 -80.31,-13.55 -33.34,0 -63.94,2.44 -91.76,7.3 -27.81,4.88 -54.58,10.45 -80.31,16.7 -25.72,6.26 -52.13,11.81 -79.25,16.69 -27.12,4.84 -57.37,7.28 -90.74,7.28 -11.15,0 -19.46,-0.68 -25.03,-2.07 -22.26,-41.72 -40.34,-89.69 -54.22,-143.94 -13.92,-54.22 -22.96,-108.79 -27.12,-163.73 -4.18,-54.91 -3.83,-107.06 1.04,-156.44 4.86,-49.38 14.93,-89.33 30.24,-119.92 66.74,-19.47 132.09,-36.16 196.07,-50.07 63.97,-13.92 129.67,-25.38 197.11,-34.42 67.44,-9.04 138.02,-15.64 211.71,-19.82 73.71,-4.17 152.96,-6.26 237.78,-6.26 84.83,0 163.05,2.09 234.67,6.26 71.6,4.18 139.74,11.13 204.41,20.86 64.67,9.74 127.24,21.55 187.73,35.45 60.47,13.93 122.02,31.28 184.59,52.16 23.65,101.53 33.72,201.28 30.25,299.32 -3.48,98.03 -29.56,201.97 -78.22,311.83 -45.88,-6.97 -86.91,-13.22 -123.09,-18.76 -36.12,-5.57 -69.15,-11.13 -99.05,-16.69 -29.91,-5.59 -57.38,-9.75 -82.41,-12.52 -25.01,-2.79 -49.36,-4.18 -72.99,-4.18 -26.43,0 -46.58,4.86 -60.49,14.63 -13.92,9.72 -23.64,21.51 -29.21,35.43 -5.56,13.91 -8.68,28.86 -9.39,44.85 -0.68,15.98 -1.03,30.93 -1.03,44.85 0,80.64 2.79,151.58 8.35,212.77 5.55,61.17 12.15,118.89 19.8,173.11 7.66,54.22 15.31,107.76 22.94,160.59 7.66,52.86 14.28,110.57 19.84,173.15 4.16,55.61 7.64,97.34 10.41,125.16 2.79,27.8 -3.46,50.04 -18.76,66.74z"/>
  <path class="fil17" d="M8059.71 5574.74c15.31,23.62 27.48,56.66 36.52,99.09 9.02,42.38 14.93,87.25 17.72,134.52 2.78,47.27 2.78,93.86 0,139.75 -2.79,45.88 -9.74,84.11 -20.85,114.73 -38.95,15.28 -83.78,26.76 -134.53,34.4 -50.78,7.63 -103.25,13.2 -157.51,16.67 -54.22,3.48 -107.76,5.59 -160.59,6.27 -52.84,0.7 -102.22,1.06 -148.12,1.06 -154.33,0 -274.95,-2.78 -361.86,-8.36 -86.93,-5.57 -151.24,-19.8 -192.95,-42.76 -41.7,-22.94 -67.46,-58.05 -77.18,-105.32 -9.74,-47.27 -14.59,-113.34 -14.59,-198.16 0,-65.37 -0.35,-133.14 -1.07,-203.38 -0.68,-70.21 -1.72,-137.32 -3.12,-201.28 -4.16,-127.93 -6.25,-255.86 -6.25,-383.79 0,-5.58 -0.35,-11.83 -1.04,-18.78 -0.7,-6.95 -1.03,-15.29 -1.03,-25.03 -1.41,-15.29 -2.11,-32.32 -2.11,-51.1 0,-18.76 0,-37.88 0,-57.36 0,-37.55 -0.33,-79.61 -1.03,-126.2 -0.71,-46.58 1.38,-91.08 6.26,-133.49 4.85,-42.41 13.91,-80.29 27.1,-113.67 13.22,-33.39 33.04,-55.63 59.44,-66.74 43.11,-18.08 90.73,-31.28 142.9,-39.64 52.16,-8.35 105.34,-13.9 159.56,-16.67 54.22,-2.79 107.41,-3.83 159.56,-3.15 52.15,0.71 99.78,1.04 142.89,1.04 36.14,0 76.13,1.41 119.94,4.18 43.8,2.77 88.63,7.3 134.53,13.57 45.9,6.25 90.73,13.88 134.53,22.92 43.81,9.06 83.1,20.54 117.85,34.42 12.52,22.26 21.23,52.15 26.07,89.7 4.88,37.55 6.62,77.17 5.23,118.89 -1.4,41.71 -4.53,83.08 -9.39,124.1 -4.88,41.04 -10.78,77.52 -17.73,109.5 -18.08,5.56 -37.9,9.39 -59.45,11.48 -21.56,2.09 -47.96,3.12 -79.26,3.12 -31.28,0 -68.82,-0.33 -112.64,-1.03 -43.79,-0.68 -96.98,-1.05 -159.56,-1.05l-104.3 0c-44.5,0 -80.29,0.37 -107.41,1.05 -27.14,0.7 -48.32,3.83 -63.61,9.39 -15.31,5.57 -25.38,13.9 -30.27,25.03 -4.84,11.11 -7.28,26.42 -7.28,45.87 0,13.92 1.39,27.47 4.16,40.71 2.79,13.2 8.71,25.36 17.75,36.49 9.04,11.13 21.89,20.17 38.56,27.12 16.7,6.95 38.95,10.41 66.76,10.41 25.01,0 56.31,-0.69 93.86,-2.07 37.54,-1.39 68.14,-3.5 91.78,-6.25 23.63,-2.79 46.94,-4.88 69.86,-6.27 22.95,-1.38 46.26,-2.09 69.88,-2.09 22.26,0 42.41,2.09 60.51,6.27 8.34,26.4 14.61,58.4 18.77,95.95 4.16,37.54 6.25,75.09 6.25,112.64 0,37.54 -1.39,72.65 -4.16,105.32 -2.78,32.68 -6.25,56.66 -10.45,71.95 -9.72,2.79 -22.24,6.26 -37.55,10.44 -15.28,4.18 -27.8,6.27 -37.54,6.27 -18.08,0 -36.14,-0.72 -54.22,-2.09 -18.09,-1.4 -36.85,-3.47 -56.32,-6.27 -19.46,-2.77 -45.2,-4.88 -77.18,-6.24 -31.98,-1.41 -58.42,-2.11 -79.25,-2.11 -50.06,0 -85.89,8.7 -107.45,26.1 -21.52,17.36 -32.31,37.18 -32.31,59.44 0,37.54 10.42,61.85 31.28,73 20.87,11.11 62.58,16.68 125.15,16.68 18.08,0 38.23,-0.36 60.49,-1.04 22.26,-0.68 44.85,-2.09 67.79,-4.16 22.95,-2.09 45.56,-4.2 67.8,-6.27 22.25,-2.08 41.7,-3.84 58.39,-5.21 36.17,-4.16 78.24,-8 126.22,-11.48 47.95,-3.48 90.03,-5.19 126.17,-5.19 6.95,0 13.57,0.33 19.83,1.03 6.25,0.68 12.87,1.72 19.8,3.13z"/>
  <path class="fil17" d="M3980.94 6017.35c-13.88,-26.44 -24.31,-62.23 -31.28,-107.45 -6.95,-45.18 -10.07,-92.45 -9.39,-141.81 0.73,-49.38 5.24,-97.35 13.57,-143.94 8.34,-46.58 20.15,-83.78 35.46,-111.58 31.98,-6.95 63.61,-7.99 94.89,-3.15 31.3,4.89 63.64,11.84 97,20.88 33.37,9.04 68.83,18.08 106.38,27.12 37.54,9.02 78.59,13.55 123.08,13.55 40.32,0 73.34,-4.16 99.05,-12.52 25.76,-8.34 45.91,-21.89 60.51,-40.67 14.59,-18.76 24.35,-44.48 29.19,-77.18 4.88,-32.67 7.31,-72.66 7.31,-119.93 0,-19.46 0.37,-49.71 1.05,-90.73 0.68,-41.02 0.68,-84.48 0,-130.37 -0.68,-45.88 -2.44,-90.4 -5.23,-133.47 -2.78,-43.11 -7.64,-75.82 -14.61,-98.06 -4.16,-13.9 -13.2,-23.62 -27.1,-29.19 -13.92,-5.56 -30.24,-9.04 -49.03,-10.44 -18.76,-1.39 -38.91,-1.39 -60.47,0 -21.55,1.4 -42.78,2.08 -63.63,2.08 -29.21,0 -55.96,0.69 -80.29,2.09 -24.34,1.39 -47.99,2.44 -70.93,3.15 -22.94,0.68 -46.59,1.72 -70.94,3.12 -24.3,1.37 -50.39,2.07 -78.21,2.07 -27.81,0 -49.34,-5.54 -64.63,-16.67 -9.74,-38.94 -16.36,-82.05 -19.84,-129.32 -3.47,-47.29 -3.83,-92.84 -1.03,-136.64 2.79,-43.79 9.04,-83.08 18.76,-117.85 9.74,-34.77 22.94,-60.49 39.66,-77.16 25.01,-8.36 52.83,-12.52 83.41,-12.52 190.5,0 374.74,1.39 552.75,4.16 178,2.79 362.24,4.18 552.74,4.18 29.21,0 59.11,3.49 89.7,10.42 15.29,25.04 27.45,54.93 36.49,89.68 9.04,34.8 15.31,71.62 18.77,110.57 3.47,38.94 4.2,78.57 2.11,118.89 -2.11,40.34 -5.92,77.89 -11.48,112.64 -19.47,9.73 -42.41,15.29 -68.85,16.68 -26.4,1.4 -56.31,2.09 -89.66,2.09 -25.03,0 -44.52,0.35 -58.42,1.03 -13.92,0.71 -24.35,2.44 -31.28,5.24 -6.95,2.77 -11.15,6.6 -12.51,11.46 -1.41,4.86 -2.11,10.77 -2.11,17.73 0,13.92 0.7,34.75 2.11,62.57 1.36,27.81 3.12,57.72 5.21,89.7 2.07,31.98 4.86,64.3 8.34,96.98 3.47,32.67 7.3,61.55 11.48,86.58 11.11,55.61 17.73,113.67 19.8,174.14 2.08,60.51 3.12,125.51 3.12,195.06 0,98.7 -14.23,182.15 -42.74,250.29 -28.53,68.13 -69.55,123.4 -123.07,165.83 -53.54,42.39 -117.87,72.99 -192.95,91.77 -75.09,18.76 -158.52,28.15 -250.31,28.15 -55.61,0 -112.27,-1.03 -169.98,-3.12 -57.7,-2.11 -112.29,-6.27 -163.72,-12.52 -51.47,-6.26 -98.74,-14.6 -141.87,-25.03 -43.08,-10.42 -78.55,-23.29 -106.38,-38.58z"/>
  <path class="fil17" d="M9332.25 2435.03c0,-226.67 38.25,-406.05 114.73,-538.17 76.46,-132.09 180.08,-223.86 310.78,-275.33 34.77,-13.9 73.02,-24.66 114.73,-32.33 41.7,-7.64 84.46,-13.53 128.28,-17.73 43.79,-4.16 87.26,-6.95 130.37,-8.32 43.11,-1.4 83.41,-2.11 120.96,-2.11 36.16,0 74.39,0.71 114.73,2.11 40.32,1.37 81.34,4.49 123.08,9.37 41.71,4.87 82.38,11.11 122.02,18.79 39.61,7.63 75.42,17.71 107.4,30.22 65.38,26.44 124.13,62.23 176.26,107.43 52.15,45.18 96.63,101.16 133.49,167.9 36.87,66.77 65.02,144.99 84.49,234.65 19.44,89.7 29.19,190.88 29.19,303.52 0,166.86 -20.86,308.34 -62.58,424.46 -41.71,116.09 -100.13,209.97 -175.22,281.57 -75.07,71.62 -165.12,123.44 -270.09,155.42 -105.01,31.96 -221.46,47.95 -349.38,47.95l-95.97 0c-126.52,0 -242.64,-15.99 -348.33,-47.95 -105.69,-31.98 -196.07,-83.8 -271.17,-155.42 -75.09,-71.6 -133.47,-165.48 -175.19,-281.57 -41.71,-116.12 -62.58,-257.6 -62.58,-424.46zm905.26 -408.84c-43.11,0 -84.82,9.04 -125.15,27.1 -40.32,18.08 -76.15,43.82 -107.43,77.19 -31.3,33.38 -56.33,74.05 -75.1,122.03 -18.76,47.99 -28.15,101.86 -28.15,161.65 0,118.2 26.77,210.32 80.31,276.38 53.53,66.03 138.7,99.07 255.52,99.07 118.21,0 204.06,-33.04 257.6,-99.07 53.54,-66.06 80.3,-158.18 80.3,-276.38 0,-59.79 -9.39,-113.66 -28.15,-161.65 -18.78,-47.98 -43.82,-88.65 -75.09,-122.03 -31.28,-33.37 -67.11,-59.11 -107.41,-77.19 -40.34,-18.06 -82.75,-27.1 -127.25,-27.1z"/>
  <path class="fil17" d="M8297.33 3221.39c-29.19,15.28 -65.7,29.19 -109.49,41.7 -43.82,12.52 -90.05,22.59 -138.71,30.25 -48.68,7.63 -97.68,12.16 -147.04,13.55 -49.38,1.38 -95.62,-2.09 -138.71,-10.43 -40.32,-23.64 -75.47,-59.1 -105.34,-106.37 -29.91,-47.27 -55.98,-94.58 -78.22,-141.85 -52.85,-107.08 -99.44,-180.42 -139.76,-220.05 -40.32,-39.64 -70.21,-59.46 -89.7,-59.46 -22.24,0 -35.79,3.83 -40.67,11.48 -4.86,7.66 -7.3,19.14 -7.3,34.43 0,12.51 2.79,37.54 8.36,75.09 5.56,37.55 10.42,79.25 14.58,125.16 4.2,45.86 5.24,91.77 3.13,137.65 -2.07,45.88 -10.76,83.41 -26.07,112.64 -33.37,11.11 -72.98,20.83 -118.89,29.19 -45.88,8.36 -93.17,14.61 -141.83,18.78 -48.68,4.16 -96.3,6.25 -142.88,6.25 -46.59,0 -86.58,-3.47 -119.93,-10.42 -6.97,-6.97 -13.57,-18.77 -19.84,-35.48 -6.24,-16.68 -10.75,-30.56 -13.55,-41.71 -5.56,-29.19 -10.4,-68.47 -14.6,-117.85 -4.16,-49.34 -7.99,-104.64 -11.46,-165.83 -3.46,-61.17 -6.25,-125.84 -8.34,-193.98 -2.11,-68.14 -4.18,-135.56 -6.27,-202.3 -2.09,-66.78 -3.47,-130.37 -4.16,-190.86 -0.72,-60.51 -1.05,-113.01 -1.05,-157.49l0 -12.52c0,-23.62 -0.7,-45.18 -2.07,-64.66 -1.41,-19.47 -9.74,-32.67 -25.03,-39.62 -8.36,-4.2 -18.08,-9.39 -29.23,-15.64 -11.11,-6.27 -21.89,-16.71 -32.31,-31.3 -10.43,-14.6 -19.12,-34.75 -26.07,-60.51 -6.97,-25.71 -11.83,-59.43 -14.61,-101.14 -1.38,-20.87 -1.38,-42.78 0,-65.72 1.37,-22.92 4.89,-45.18 10.43,-66.74 5.57,-21.55 13.57,-41.72 23.98,-60.48 10.42,-18.79 23.99,-34.43 40.69,-46.94 38.91,-27.79 98.37,-43.45 178.32,-46.94 79.98,-3.48 179.03,-5.2 297.23,-5.2 79.26,0 162.02,0.36 248.21,1.04 86.24,0.68 170.35,5.23 252.4,13.55 82.04,8.36 159.91,21.91 233.62,40.67 73.69,18.78 138.35,46.59 193.98,83.45 55.63,36.85 99.77,84.82 132.44,143.92 32.7,59.1 49.03,131.76 49.03,217.98 0,56.99 -8.69,107.76 -26.07,152.28 -17.4,44.48 -39.28,83.76 -65.7,117.83 -26.44,34.07 -54.59,63.97 -84.47,89.7 -29.91,25.72 -58.06,47.95 -84.48,66.74 -26.44,18.76 -48.33,34.75 -65.7,47.99 -17.4,13.2 -26.09,24.66 -26.09,34.4 0,5.55 10.45,18.42 31.28,38.59 20.87,20.15 46.59,45.53 77.18,76.12 30.6,30.6 64.3,65.71 101.16,105.34 36.87,39.64 70.59,81.34 101.18,125.16 30.58,43.79 56.31,89.7 77.17,137.65 20.85,47.97 31.27,95.62 31.27,142.91zm-1084.64 -1019.98c0,33.35 1.41,61.5 4.2,84.47 2.77,22.94 8.69,42.05 17.71,57.36 9.04,15.29 22.96,26.4 41.72,33.37 18.79,6.95 44.15,10.43 76.13,10.43 23.67,0 51.47,-4.53 83.45,-13.55 31.99,-9.04 62.91,-21.56 92.81,-37.55 29.91,-16.01 55.27,-34.42 76.14,-55.28 20.88,-20.87 31.28,-43.11 31.28,-66.73 0,-51.47 -25.03,-92.49 -75.09,-123.09 -50.04,-30.6 -112.62,-45.9 -187.71,-45.9 -58.42,0 -99.78,9.76 -124.13,29.22 -24.32,19.47 -36.51,61.88 -36.51,127.25z"/>
  <g id="_1749142856112">
   <g>
    <path class="fil29" d="M14805.64 6637.08c723.48,0 1446.96,-0.48 2170.43,-0.04 147.81,0.1 267.61,82.07 308.37,226.25 7.22,26.9 9.92,50.7 10.31,78.48l0 2184.45c0,167.58 -137.08,304.66 -304.67,304.66l-2184.44 0c-167.59,0 -304.69,-137.08 -304.69,-304.66l0 -2184.45c0,-167.59 137.1,-304.69 304.69,-304.69z"/>
    <path class="fil30" d="M14812.12 9422.62c-166.6,0 -302.89,-136.28 -302.89,-302.89l0 -2171.47c0,-166.61 136.29,-302.9 302.89,-302.9l2171.48 0c166.6,0 302.89,136.29 302.89,302.9l0 2171.47c0,166.61 -136.29,302.89 -302.89,302.89l-2171.48 0zm2184.42 -2793.78l-2197.36 0c-168.58,0 -306.49,137.89 -306.49,306.47l0 2197.36c0,168.58 137.91,306.49 306.49,306.49l2197.36 0c168.58,0 306.47,-137.91 306.47,-306.49l0 -2197.36c0,-168.58 -137.89,-306.47 -306.47,-306.47z"/>
    <path class="fil3" d="M14509.23 9119.73c0,166.61 136.29,302.89 302.89,302.89l2171.48 0c166.6,0 302.89,-136.28 302.89,-302.89l0 -2171.47c0,-166.61 -136.29,-302.9 -302.89,-302.9l-2171.48 0c-166.6,0 -302.89,136.29 -302.89,302.9l0 2171.47zm2383.32 195.43l-2053.79 0c-157.59,0 -286.48,-128.89 -286.48,-286.48l0 -2053.79c0,-157.59 128.89,-286.49 286.48,-286.49l2053.79 0c157.59,0 286.49,128.9 286.49,286.49l0 2053.79c0,157.59 -128.9,286.48 -286.49,286.48z"/>
    <path class="fil4" d="M14552.28 9028.68c0,60.49 18.98,116.74 51.3,163.1l0 -2159.49c0,-160.92 131.65,-292.56 292.6,-292.56l2097.71 0c25.93,0 51.09,3.41 75.09,9.82 -48.74,-38.27 -110.02,-61.15 -176.43,-61.15l-2053.79 0c-157.59,0 -286.48,128.9 -286.48,286.49l0 2053.79z"/>
   </g>
   <path class="fil17" d="M16800.59 8872.32c-29.19,15.29 -65.71,29.19 -109.5,41.71 -43.81,12.52 -90.05,22.59 -138.71,30.24 -48.67,7.64 -97.68,12.17 -147.04,13.56 -49.38,1.38 -95.62,-2.09 -138.71,-10.43 -40.34,-23.65 -75.46,-59.1 -105.34,-106.37 -29.91,-47.27 -55.98,-94.58 -78.21,-141.85 -52.86,-107.08 -99.45,-180.42 -139.77,-220.05 -40.33,-39.64 -70.21,-59.46 -89.69,-59.46 -22.26,0 -35.81,3.83 -40.68,11.48 -4.86,7.66 -7.3,19.14 -7.3,34.43 0,12.51 2.79,37.54 8.36,75.09 5.56,37.55 10.43,79.25 14.58,125.16 4.18,45.86 5.22,91.76 3.13,137.65 -2.07,45.88 -10.76,83.41 -26.07,112.64 -33.39,11.11 -72.98,20.83 -118.89,29.19 -45.9,8.36 -93.17,14.6 -141.83,18.78 -48.67,4.16 -96.3,6.25 -142.88,6.25 -46.59,0 -86.58,-3.47 -119.93,-10.43 -6.97,-6.97 -13.57,-18.76 -19.83,-35.47 -6.25,-16.68 -10.76,-30.56 -13.55,-41.71 -5.57,-29.19 -10.43,-68.47 -14.61,-117.85 -4.16,-49.34 -7.98,-104.64 -11.46,-165.83 -3.48,-61.17 -6.25,-125.84 -8.36,-193.98 -2.09,-68.15 -4.16,-135.57 -6.25,-202.3 -2.08,-66.78 -3.47,-130.37 -4.15,-190.86 -0.73,-60.51 -1.06,-113.01 -1.06,-157.49l0 -12.52c0,-23.62 -0.7,-45.18 -2.07,-64.66 -1.4,-19.47 -9.74,-32.67 -25.03,-39.62 -8.36,-4.2 -18.1,-9.39 -29.23,-15.64 -11.11,-6.27 -21.91,-16.71 -32.31,-31.3 -10.43,-14.6 -19.12,-34.75 -26.07,-60.51 -6.97,-25.71 -11.83,-59.43 -14.6,-101.14 -1.39,-20.87 -1.39,-42.78 0,-65.72 1.36,-22.92 4.86,-45.18 10.4,-66.74 5.57,-21.55 13.59,-41.72 24,-60.49 10.43,-18.78 24,-34.42 40.67,-46.93 38.93,-27.79 98.39,-43.45 178.34,-46.94 79.98,-3.48 179.03,-5.2 297.24,-5.2 79.25,0 162,0.35 248.2,1.04 86.22,0.68 170.36,5.23 252.4,13.55 82.03,8.36 159.91,21.91 233.62,40.67 73.69,18.78 138.36,46.59 193.98,83.45 55.63,36.84 99.78,84.82 132.44,143.92 32.69,59.1 49.03,131.76 49.03,217.98 0,56.99 -8.69,107.76 -26.07,152.28 -17.39,44.47 -39.28,83.76 -65.7,117.83 -26.44,34.07 -54.59,63.96 -84.48,89.7 -29.9,25.71 -58.07,47.95 -84.47,66.74 -26.44,18.76 -48.34,34.75 -65.7,47.99 -17.4,13.2 -26.09,24.66 -26.09,34.4 0,5.55 10.45,18.41 31.28,38.58 20.87,20.15 46.59,45.54 77.18,76.13 30.6,30.6 64.3,65.71 101.16,105.34 36.85,39.64 70.59,81.34 101.18,125.16 30.58,43.79 56.31,89.7 77.17,137.65 20.85,47.97 31.28,95.61 31.28,142.9zm-1084.65 -1019.97c0,33.35 1.41,61.5 4.2,84.47 2.77,22.94 8.69,42.05 17.71,57.36 9.04,15.29 22.96,26.4 41.73,33.37 18.78,6.95 44.14,10.42 76.12,10.42 23.65,0 51.47,-4.52 83.46,-13.55 31.96,-9.04 62.91,-21.55 92.8,-37.54 29.89,-16.01 55.27,-34.43 76.15,-55.28 20.85,-20.87 31.28,-43.11 31.28,-66.74 0,-51.46 -25.04,-92.49 -75.1,-123.08 -50.06,-30.6 -112.62,-45.91 -187.71,-45.91 -58.42,0 -99.78,9.77 -124.12,29.23 -24.35,19.47 -36.52,61.88 -36.52,127.25z"/>
  </g>
  <path class="fil17" d="M13674.25 8384.92c15.29,23.62 27.48,56.66 36.52,99.09 9,42.39 14.91,87.26 17.71,134.53 2.77,47.27 2.77,93.85 0,139.74 -2.8,45.88 -9.75,84.11 -20.86,114.73 -38.93,15.29 -83.78,26.77 -134.52,34.4 -50.79,7.64 -103.25,13.2 -157.49,16.68 -54.25,3.47 -107.76,5.58 -160.62,6.26 -52.83,0.71 -102.21,1.06 -148.1,1.06 -154.34,0 -274.97,-2.77 -361.88,-8.36 -86.92,-5.56 -151.24,-19.8 -192.94,-42.76 -41.71,-22.94 -67.46,-58.05 -77.19,-105.32 -9.74,-47.27 -14.58,-113.34 -14.58,-198.16 0,-65.37 -0.35,-133.14 -1.06,-203.37 -0.7,-70.22 -1.74,-137.32 -3.14,-201.29 -4.16,-127.93 -6.25,-255.86 -6.25,-383.78 0,-5.59 -0.35,-11.84 -1.03,-18.79 -0.69,-6.95 -1.04,-15.29 -1.04,-25.03 -1.4,-15.29 -2.09,-32.31 -2.09,-51.1 0,-18.76 0,-37.88 0,-57.36 0,-37.55 -0.35,-79.61 -1.03,-126.19 -0.73,-46.59 1.36,-91.09 6.25,-133.5 4.86,-42.41 13.9,-80.28 27.1,-113.67 13.23,-33.39 33.03,-55.63 59.45,-66.74 43.11,-18.08 90.73,-31.28 142.89,-39.64 52.15,-8.35 105.33,-13.9 159.56,-16.67 54.22,-2.79 107.4,-3.83 159.55,-3.14 52.18,0.7 99.8,1.03 142.91,1.03 36.14,0 76.11,1.41 119.92,4.18 43.8,2.77 88.65,7.3 134.53,13.57 45.91,6.25 90.74,13.88 134.55,22.92 43.79,9.06 83.08,20.54 117.85,34.43 12.52,22.23 21.21,52.15 26.07,89.69 4.86,37.55 6.6,77.17 5.21,118.89 -1.4,41.71 -4.53,83.08 -9.39,124.1 -4.86,41.05 -10.78,77.52 -17.73,109.5 -18.08,5.57 -37.9,9.39 -59.45,11.48 -21.56,2.09 -47.96,3.13 -79.25,3.13 -31.28,0 -68.83,-0.34 -112.63,-1.04 -43.81,-0.68 -97,-1.05 -159.57,-1.05l-104.31 0c-44.5,0 -80.29,0.37 -107.41,1.05 -27.12,0.7 -48.3,3.83 -63.61,9.39 -15.31,5.57 -25.38,13.91 -30.24,25.03 -4.87,11.11 -7.31,26.42 -7.31,45.87 0,13.92 1.39,27.47 4.16,40.71 2.79,13.2 8.71,25.36 17.75,36.49 9.04,11.13 21.91,20.17 38.58,27.12 16.68,6.95 38.96,10.41 66.74,10.41 25.03,0 56.31,-0.68 93.86,-2.07 37.54,-1.39 68.14,-3.5 91.79,-6.25 23.62,-2.79 46.93,-4.88 69.88,-6.27 22.92,-1.38 46.23,-2.09 69.86,-2.09 22.28,0 42.43,2.09 60.51,6.27 8.35,26.4 14.6,58.4 18.76,95.95 4.16,37.55 6.27,75.09 6.27,112.64 0,37.55 -1.41,72.65 -4.18,105.32 -2.77,32.68 -6.25,56.66 -10.45,71.95 -9.72,2.79 -22.24,6.27 -37.52,10.44 -15.31,4.18 -27.83,6.27 -37.55,6.27 -18.08,0 -36.14,-0.72 -54.22,-2.09 -18.1,-1.4 -36.87,-3.47 -56.33,-6.26 -19.47,-2.78 -45.2,-4.89 -77.19,-6.25 -31.98,-1.41 -58.4,-2.11 -79.25,-2.11 -50.06,0 -85.87,8.71 -107.43,26.1 -21.53,17.36 -32.33,37.18 -32.33,59.44 0,37.55 10.43,61.85 31.3,73 20.85,11.11 62.58,16.68 125.14,16.68 18.08,0 38.25,-0.35 60.48,-1.04 22.28,-0.68 44.87,-2.09 67.8,-4.16 22.94,-2.08 45.55,-4.19 67.81,-6.26 22.24,-2.09 41.7,-3.85 58.38,-5.22 36.16,-4.16 78.23,-8 126.21,-11.48 47.95,-3.47 90.05,-5.19 126.19,-5.19 6.93,0 13.57,0.33 19.82,1.03 6.26,0.69 12.86,1.72 19.81,3.13z"/>
  <path class="fil17" d="M10454.16 7257.01c48.66,-15.27 105.32,-27.1 169.99,-35.44 64.67,-8.36 129.67,-12.52 195.02,-12.52 66.77,0 129.33,4.88 187.73,14.61 58.4,9.72 104.99,25.03 139.76,45.86 27.81,59.83 45.18,136.64 52.15,230.5 6.96,93.85 10.41,197.81 10.41,311.83 0,204.41 -14.25,377.19 -42.76,518.34 -28.51,141.15 -79.93,255.86 -154.35,344.17 -74.39,88.29 -176.23,152.26 -305.56,191.89 -129.32,39.64 -294.8,59.44 -496.45,59.44 -101.49,0 -196.39,-8.34 -284.72,-25.03 -88.29,-16.68 -167.54,-45.54 -237.77,-86.56 -70.22,-41.02 -130.71,-96.28 -181.47,-165.83 -50.75,-69.53 -90.03,-156.43 -117.84,-260.72 -12.51,-51.46 -21.9,-107.4 -28.15,-167.91 -6.27,-60.49 -10.45,-122.04 -12.52,-184.59 -2.11,-62.58 -2.79,-124.11 -2.11,-184.61 0.71,-60.47 1.04,-117.14 1.04,-169.99 0,-108.46 2.79,-204.06 8.36,-286.81 5.56,-82.72 25.71,-152.62 60.48,-209.62 38.96,-13.9 86.91,-24.35 143.92,-31.3 57.04,-6.93 116.82,-10.4 179.4,-10.4 70.9,0 139.39,4.16 205.45,12.51 66.07,8.32 122.01,21.56 167.91,39.6 9.73,23.66 14.61,59.1 14.61,106.39 0,47.29 0,104.31 0,171.04 0,55.63 -0.35,108.82 -1.06,159.56 -0.7,50.77 -1.03,100.48 -1.03,149.15 0,48.66 -0.35,98.37 -1.04,149.16 -0.7,50.74 -1.07,103.93 -1.07,159.56 0,26.4 2.79,52.81 8.36,79.25 5.56,26.42 14.95,50.39 28.15,71.95 13.22,21.58 30.6,39.28 52.15,53.21 21.56,13.88 48.33,20.85 80.29,20.85 37.55,0 67.81,-8.34 90.77,-25.03 22.93,-16.7 41.03,-38.25 54.22,-64.67 13.2,-26.44 21.89,-56.66 26.07,-90.73 4.18,-34.07 6.25,-68.48 6.25,-103.25 0,-90.38 -4.16,-185.63 -12.52,-285.77 -8.31,-100.13 -12.51,-194.67 -12.51,-283.66 0,-38.96 -1.04,-73.36 -3.13,-103.25 -2.07,-29.9 2.44,-63.64 13.57,-101.18z"/>
  <path class="fil17" d="M8087.28 7221.41c19.47,30.6 33,66.41 40.67,107.43 7.64,41.02 10.76,83.08 9.4,126.19 -1.41,43.11 -6.27,85.17 -14.63,126.19 -8.32,41.04 -18.76,76.15 -31.28,105.34 -30.59,4.16 -62.58,5.57 -95.93,4.16 -33.38,-1.39 -68.49,-3.81 -105.33,-7.28 -36.87,-3.48 -76.13,-7.31 -117.88,-11.48 -41.7,-4.18 -86.2,-6.27 -133.49,-6.27 -107.08,0 -189.45,11.83 -247.17,35.48 -57.7,23.62 -100.13,54.22 -127.23,91.76 -27.12,37.55 -43.11,78.91 -47.99,124.13 -4.84,45.18 -7.28,88.64 -7.28,130.37 0,33.34 1.4,68.82 4.16,106.37 2.79,37.55 11.13,71.97 25.03,103.25 13.92,31.3 34.79,57.34 62.58,78.22 27.8,20.85 66.75,31.29 116.82,31.29 45.86,0 89.32,-3.51 130.35,-10.44 41.04,-6.95 76.83,-16.7 107.42,-29.21 30.6,-12.52 54.93,-28.16 73.01,-46.92 18.08,-18.78 27.12,-39.99 27.12,-63.61 0,-26.44 -27.81,-39.64 -83.43,-39.64 -22.26,0 -41.73,2.44 -58.42,7.28 -16.68,4.88 -32.67,10.08 -47.98,15.66 -15.28,5.57 -30.59,10.78 -45.88,15.64 -15.29,4.88 -33.37,7.3 -54.22,7.3l-10.43 0c-16.71,-23.64 -30.26,-49.71 -40.67,-78.21 -10.44,-28.53 -17.75,-57.04 -21.91,-85.52 -4.17,-28.51 -4.53,-55.63 -1.05,-81.36 3.49,-25.72 10.78,-46.92 21.91,-63.6 27.8,-27.82 63.28,-51.1 106.37,-69.88 43.11,-18.76 87.96,-33.72 134.53,-44.85 46.59,-11.11 93.52,-19.13 140.81,-23.98 47.29,-4.88 89,-7.32 125.16,-7.32 16.68,0 38.58,1.06 65.7,3.13 27.1,2.11 54.91,5.91 83.41,11.48 28.51,5.58 55.63,12.86 81.37,21.9 25.71,9.05 44.85,21.21 57.36,36.52 19.47,20.83 35.11,47.62 46.94,80.28 11.79,32.69 21.18,68.5 28.15,107.43 6.96,38.94 11.47,78.92 13.56,119.95 2.08,41 3.12,80.3 3.12,117.85 0,429.67 -283,644.53 -848.96,644.53 -151.55,0 -278.8,-21.91 -381.69,-65.71 -102.88,-43.81 -185.63,-103.97 -248.21,-180.43 -62.58,-76.48 -107.41,-167.21 -134.54,-272.2 -27.13,-105.01 -40.68,-217.98 -40.68,-338.96 0,-129.33 18.44,-248.57 55.3,-357.72 36.82,-109.16 92.1,-203.72 165.81,-283.68 73.69,-79.95 166.18,-142.53 277.41,-187.73 111.26,-45.18 241.27,-67.78 390.06,-67.78 58.41,0 115.76,0.69 172.07,2.07 56.33,1.41 109.17,4.53 158.54,9.4 49.36,4.88 93.16,11.48 131.41,19.81 38.23,8.34 68.47,19.47 90.73,33.37z"/>
  <path class="fil17" d="M5532.84 8802.64c-29.19,15.29 -65.7,29.19 -109.51,41.71 -43.8,12.51 -90.03,22.59 -138.69,30.24 -48.7,7.63 -97.68,12.16 -147.06,13.55 -49.36,1.39 -95.62,-2.09 -138.69,-10.43 -40.34,-23.64 -75.47,-59.1 -105.36,-106.37 -29.89,-47.27 -55.96,-94.58 -78.22,-141.85 -52.83,-107.08 -99.42,-180.41 -139.76,-220.05 -40.32,-39.63 -70.19,-59.45 -89.7,-59.45 -22.24,0 -35.79,3.82 -40.67,11.48 -4.84,7.65 -7.28,19.13 -7.28,34.42 0,12.52 2.77,37.55 8.36,75.09 5.56,37.55 10.4,79.26 14.58,125.16 4.18,45.87 5.21,91.77 3.13,137.65 -2.07,45.89 -10.78,83.42 -26.07,112.64 -33.39,11.11 -73.01,20.84 -118.89,29.19 -45.9,8.36 -93.17,14.61 -141.83,18.79 -48.68,4.16 -96.3,6.25 -142.89,6.25 -46.58,0 -86.57,-3.48 -119.92,-10.43 -6.99,-6.97 -13.59,-18.76 -19.84,-35.48 -6.26,-16.67 -10.77,-30.55 -13.55,-41.7 -5.56,-29.19 -10.42,-68.48 -14.6,-117.86 -4.18,-49.34 -7.99,-104.63 -11.46,-165.82 -3.48,-61.18 -6.27,-125.84 -8.36,-193.99 -2.09,-68.14 -4.16,-135.56 -6.25,-202.3 -2.11,-66.77 -3.47,-130.37 -4.18,-190.86 -0.7,-60.5 -1.05,-113.01 -1.05,-157.49l0 -12.51c0,-23.63 -0.68,-45.18 -2.07,-64.67 -1.41,-19.47 -9.72,-32.67 -25.03,-39.62 -8.34,-4.19 -18.08,-9.39 -29.21,-15.64 -11.11,-6.26 -21.91,-16.71 -32.34,-31.29 -10.4,-14.61 -19.11,-34.76 -26.04,-60.51 -6.99,-25.72 -11.83,-59.44 -14.63,-101.14 -1.36,-20.88 -1.36,-42.78 0,-65.73 1.39,-22.92 4.89,-45.18 10.43,-66.73 5.56,-21.56 13.57,-41.73 24,-60.49 10.42,-18.78 23.99,-34.42 40.67,-46.94 38.93,-27.78 98.37,-43.44 178.34,-46.94 79.98,-3.47 179.03,-5.19 297.23,-5.19 79.25,0 162,0.35 248.21,1.03 86.22,0.69 170.35,5.24 252.4,13.55 82.02,8.36 159.89,21.91 233.62,40.67 73.68,18.79 138.35,46.59 193.98,83.45 55.63,36.85 99.77,84.82 132.44,143.92 32.68,59.11 49.03,131.76 49.03,217.98 0,57 -8.71,107.76 -26.07,152.28 -17.4,44.48 -39.3,83.76 -65.7,117.84 -26.44,34.07 -54.59,63.96 -84.49,89.69 -29.91,25.72 -58.07,47.96 -84.46,66.74 -26.44,18.76 -48.35,34.76 -65.71,47.99 -17.39,13.2 -26.1,24.66 -26.1,34.41 0,5.54 10.45,18.41 31.3,38.58 20.85,20.15 46.59,45.53 77.18,76.13 30.6,30.59 64.3,65.7 101.16,105.34 36.85,39.63 70.57,81.34 101.16,125.15 30.58,43.8 56.33,89.7 77.16,137.65 20.88,47.98 31.3,95.62 31.3,142.91zm-1084.64 -1019.98c0,33.35 1.41,61.51 4.18,84.47 2.79,22.94 8.71,42.06 17.73,57.36 9.04,15.29 22.94,26.4 41.72,33.37 18.77,6.95 44.15,10.43 76.13,10.43 23.65,0 51.47,-4.53 83.43,-13.55 31.99,-9.04 62.93,-21.56 92.81,-37.55 29.91,-16.01 55.29,-34.42 76.14,-55.27 20.88,-20.88 31.3,-43.12 31.3,-66.74 0,-51.47 -25.03,-92.49 -75.09,-123.09 -50.06,-30.59 -112.64,-45.9 -187.74,-45.9 -58.4,0 -99.77,9.76 -124.1,29.23 -24.35,19.46 -36.51,61.87 -36.51,127.24z"/>
  <path class="fil17" d="M2451.24 8384.92c15.31,23.62 27.48,56.66 36.52,99.09 9.02,42.39 14.93,87.26 17.71,134.53 2.79,47.27 2.79,93.85 0,139.74 -2.78,45.88 -9.73,84.11 -20.84,114.73 -38.95,15.29 -83.78,26.77 -134.53,34.4 -50.78,7.64 -103.25,13.2 -157.51,16.68 -54.22,3.47 -107.76,5.58 -160.59,6.26 -52.84,0.71 -102.21,1.06 -148.12,1.06 -154.33,0 -274.95,-2.77 -361.86,-8.36 -86.92,-5.56 -151.24,-19.8 -192.95,-42.76 -41.72,-22.94 -67.46,-58.05 -77.18,-105.32 -9.74,-47.27 -14.58,-113.34 -14.58,-198.16 0,-65.37 -0.36,-133.14 -1.08,-203.37 -0.68,-70.22 -1.72,-137.32 -3.12,-201.29 -4.16,-127.93 -6.25,-255.86 -6.25,-383.78 0,-5.59 -0.35,-11.84 -1.04,-18.79 -0.7,-6.95 -1.03,-15.29 -1.03,-25.03 -1.41,-15.29 -2.11,-32.31 -2.11,-51.1 0,-18.76 0,-37.88 0,-57.36 0,-37.55 -0.33,-79.61 -1.03,-126.19 -0.71,-46.59 1.38,-91.09 6.26,-133.5 4.85,-42.41 13.89,-80.28 27.1,-113.67 13.22,-33.39 33.04,-55.63 59.44,-66.74 43.11,-18.08 90.73,-31.28 142.9,-39.64 52.16,-8.35 105.34,-13.9 159.56,-16.67 54.23,-2.79 107.41,-3.83 159.56,-3.14 52.16,0.7 99.78,1.03 142.89,1.03 36.14,0 76.13,1.41 119.92,4.18 43.82,2.77 88.65,7.3 134.55,13.57 45.88,6.25 90.73,13.88 134.53,22.92 43.81,9.06 83.1,20.54 117.85,34.43 12.52,22.23 21.23,52.15 26.07,89.69 4.88,37.55 6.6,77.17 5.23,118.89 -1.4,41.71 -4.53,83.08 -9.39,124.1 -4.88,41.05 -10.8,77.52 -17.73,109.5 -18.08,5.57 -37.9,9.39 -59.45,11.48 -21.56,2.09 -47.98,3.13 -79.26,3.13 -31.28,0 -68.82,-0.34 -112.64,-1.04 -43.79,-0.68 -96.98,-1.05 -159.56,-1.05l-104.3 0c-44.5,0 -80.29,0.37 -107.41,1.05 -27.14,0.7 -48.32,3.83 -63.61,9.39 -15.31,5.57 -25.38,13.91 -30.26,25.03 -4.85,11.11 -7.29,26.42 -7.29,45.87 0,13.92 1.37,27.47 4.16,40.71 2.79,13.2 8.69,25.36 17.75,36.49 9.04,11.13 21.89,20.17 38.56,27.12 16.7,6.95 38.95,10.41 66.74,10.41 25.03,0 56.33,-0.68 93.88,-2.07 37.54,-1.39 68.14,-3.5 91.78,-6.25 23.63,-2.79 46.94,-4.88 69.86,-6.27 22.95,-1.38 46.26,-2.09 69.89,-2.09 22.25,0 42.4,2.09 60.48,6.27 8.36,26.4 14.63,58.4 18.79,95.95 4.16,37.55 6.25,75.09 6.25,112.64 0,37.55 -1.41,72.65 -4.16,105.32 -2.78,32.68 -6.25,56.66 -10.45,71.95 -9.72,2.79 -22.24,6.27 -37.55,10.44 -15.28,4.18 -27.8,6.27 -37.54,6.27 -18.08,0 -36.14,-0.72 -54.22,-2.09 -18.08,-1.4 -36.85,-3.47 -56.31,-6.26 -19.47,-2.78 -45.21,-4.89 -77.19,-6.25 -31.98,-1.41 -58.42,-2.11 -79.25,-2.11 -50.06,0 -85.89,8.71 -107.45,26.1 -21.51,17.36 -32.31,37.18 -32.31,59.44 0,37.55 10.42,61.85 31.28,73 20.87,11.11 62.58,16.68 125.15,16.68 18.08,0 38.23,-0.35 60.49,-1.04 22.26,-0.68 44.85,-2.09 67.79,-4.16 22.95,-2.08 45.56,-4.19 67.8,-6.26 22.25,-2.09 41.7,-3.85 58.4,-5.22 36.16,-4.16 78.23,-8 126.21,-11.48 47.95,-3.47 90.03,-5.19 126.17,-5.19 6.95,0 13.57,0.33 19.84,1.03 6.24,0.69 12.86,1.72 19.79,3.13z"/>
  <path class="fil13" d="M21536.95 5696.45c-107.51,351.64 -708.64,304.32 -835.31,182.41 72.26,-135.65 151.27,-493.67 136.23,-634.9 115.62,-45.87 735.43,56.92 699.08,452.49z"/>
  <path class="fil13" d="M15752.01 3349.81c-231.82,285.44 142.89,757.87 314.74,794.96 72.24,-135.66 325.26,-401.01 450.84,-467.34 -26.45,-121.54 -457.61,-578.52 -765.58,-327.62z"/>
  <path class="fil23" d="M21711.72 4573.23c-4.15,43.77 72.71,121.58 75.86,7.68 52.29,-6.14 256.22,-48.35 138.17,-107.16 -77.26,-38.5 -184.02,30.95 -214.03,99.48z"/>
 </g>
</svg>
